<?xml version="1.0" encoding="utf-8"?>
<!-- Generator: Adobe Illustrator 24.0.3, SVG Export Plug-In . SVG Version: 6.00 Build 0)  -->
<svg version="1.1" id="Layer_1" xmlns="http://www.w3.org/2000/svg" xmlns:xlink="http://www.w3.org/1999/xlink" x="0px" y="0px"
	 viewBox="0 0 1409.4 721" style="enable-background:new 0 0 1409.4 721;" xml:space="preserve">
<style type="text/css">
	.st0{fill:#FFFFFF;}
	.st1{fill:none;}
	.st2{fill:#2F38FF;}
	.st3{font-family:'OfficeCodePro-Regular';}
	.st4{font-size:26.9172px;}
	.st5{letter-spacing:4;}
</style>
<rect x="-1.4" class="st0" width="1410.8" height="721"/>
<rect x="-1.4" y="5.7" class="st1" width="1441.4" height="715.3"/>
<text transform="matrix(1 0 0 1 -1.4116 25.2852)" class="st2 st3 st4 st5">1010100101101001010101010010010101010100101010101010010101010101001</text>
<text transform="matrix(1 0 0 1 -1.4116 61.5852)" class="st2 st3 st4 st5">0101010011001010101010101010101010101001010000101010111010011010100</text>
<text transform="matrix(1 0 0 1 -1.4116 97.9852)" class="st2 st3 st4 st5">1010010101001010101001010010101010100011111010011001010010101010010</text>
<text transform="matrix(1 0 0 1 -1.4116 134.2852)" class="st2 st3 st4 st5">1010010100101011101001010100110100101001001100100101010101110101010</text>
<text transform="matrix(1 0 0 1 -1.4116 170.6852)" class="st2 st3 st4 st5">0100[JUSTICE]100001010101010010100100100010101001100101001010101101</text>
<text transform="matrix(1 0 0 1 -1.4116 206.9852)" class="st2 st3 st4 st5">01010010100100100100101010101010101001001011011001[HOUSING]11101010</text>
<text transform="matrix(1 0 0 1 -1.4116 243.2852)" class="st2 st3 st4 st5">1000101010101001010010010010010101010010001010101010010100100100100</text>
<text transform="matrix(1 0 0 1 -1.4116 279.6852)" class="st2 st3 st4 st5">1[BAIL]000101010101001010010010010010101010101010101001011010100101</text>
<text transform="matrix(1 0 0 1 -1.4116 315.9852)" class="st2 st3 st4 st5">0010101110100101010011010010100100110010010101010111010101001000100</text>
<text transform="matrix(1 0 0 1 -1.4116 352.2852)" class="st2 st3 st4 st5">0010101010100101001001001001010101101010100101001001001001010101010</text>
<text transform="matrix(1 0 0 1 -1.4116 388.6852)" class="st2 st3 st4 st5">1010101100101101100101010101101010001011101001001001011010010010010</text>
<text transform="matrix(1 0 0 1 -1.4116 424.9852)" class="st2 st3 st4 st5">1010011010110101010101001100110101010001010101001001010101001001010</text>
<text transform="matrix(1 0 0 1 -1.4116 461.3852)" class="st2 st3 st4 st5">10101010101001010000100101010101010010000101[HEALTHCARE]11001010101</text>
<text transform="matrix(1 0 0 1 -1.4116 497.6852)" class="st2 st3 st4 st5">0010100100100100101010100100010101010100101001001010010100101011101</text>
<text transform="matrix(1 0 0 1 -1.4116 533.9852)" class="st2 st3 st4 st5">001010100110100101001001100[HIRING]10010101010111010101001000100001</text>
<text transform="matrix(1 0 0 1 -1.4116 570.3852)" class="st2 st3 st4 st5">010[EDUCATION]10101001010010010001010100110010100101010110[LOANS]10</text>
<text transform="matrix(1 0 0 1 -1.4116 606.6852)" class="st2 st3 st4 st5">1001010010010010010101010101010100100101101100101010101110101010001</text>
<text transform="matrix(1 0 0 1 -1.4116 643.0852)" class="st2 st3 st4 st5">0101010101001010001010101010101010101010101010101011010111010101010</text>
<text transform="matrix(1 0 0 1 -1.4116 679.3852)" class="st2 st3 st4 st5">1010100101001010010110101011101010101001010101010010100101010101010</text>
<text transform="matrix(1 0 0 1 -1.4116 715.6852)" class="st2 st3 st4 st5">1010100101101001010101010010010101010100101010101010010101010101001</text>
<polygon class="st0" points="1197.6,249.1 421.3,249.1 421.3,213.7 142,213.7 142,499.4 421.3,499.4 422.6,391.8 1028.8,391.8 
	1027.6,320.3 1197.6,320.3 "/>
<g>
	<polygon class="st2" points="179.4,359.8 186.6,363.9 186.6,363.9 	"/>
	<path class="st2" d="M222.6,408c-5.9,4.3-13.2,6.9-21.1,6.9C209.4,414.9,216.7,412.3,222.6,408z"/>
	<path class="st2" d="M393.9,374.3l0.1-23.4l-7.2,4.1l-17-29.9c3.6-3.5,5.9-8.5,5.9-13.9c0-9.8-7.3-17.9-16.8-19.2l10.5-18.1h-8.3
		v-20h-63.4c-2.2-8.4-9.8-14.6-18.8-14.6s-16.6,6.2-18.8,14.6h-63.4v20h-8.3l10.5,18.1c-9.4,1.3-16.8,9.4-16.8,19.2
		c0,5.5,2.3,10.4,5.9,13.9L171,355l-7.2-4.1l0.1,23.4H156v4.9c0,25.1,20.4,45.5,45.5,45.5s45.5-20.4,45.5-45.5v-4.9h-7.8l0.1-23.4
		l-7.2,4.1l-17-29.9c3.6-3.5,5.9-8.5,5.9-13.9c0-9.8-7.3-17.9-16.7-19.2l10.5-18.1h-8.3v-10.2H260c2,7.5,8.3,13.3,16.1,14.3
		l-10.5,18.1h8.3v21.6c-8.4,2.2-14.6,9.8-14.6,18.8c0,9.8,7.3,17.9,16.7,19.2l-10.5,18.1h8.3v66.5h-77.3v37.3H361v-37.3h-77.3v-66.5
		h8.3l-10.5-18.1c9.4-1.3,16.7-9.4,16.7-19.2c0-9-6.2-16.6-14.6-18.8v-21.6h8.3L281.4,278c7.8-1.1,14.1-6.8,16.1-14.3h53.6v10.2H343
		l10.5,18.1c-9.4,1.3-16.7,9.4-16.7,19.2c0,5.5,2.3,10.4,5.9,13.9l-17,29.9l-7.2-4.1l0.1,23.4h-7.8v4.9c0,25.1,20.4,45.5,45.5,45.5
		s45.5-20.4,45.5-45.5v-4.9H393.9z M222.6,408c-5.9,4.3-13.2,6.9-21.1,6.9c-9.6,0-18.3-3.8-24.7-9.9c-5.7-5.4-9.5-12.7-10.7-20.9
		h70.7C235.5,393.9,230.2,402.4,222.6,408z M223.6,359.8l-7.2,4.1l17.7,10.4h-65.3l0,0l17.7-10.4l-7.2-4.1l17-29.9
		c1.6,0.4,3.3,0.7,5.1,0.7s3.4-0.3,5.1-0.7L223.6,359.8z M211.2,311.2c0,1.8-0.5,3.4-1.3,4.8c-1.7,2.9-4.8,4.9-8.4,4.9
		c-3.6,0-6.7-2-8.4-4.9c-0.8-1.4-1.3-3.1-1.3-4.8c0-5.3,4.3-9.7,9.7-9.7C206.8,301.5,211.2,305.8,211.2,311.2z M351.3,450.2v17.7
		H206.4v-17.7H351.3z M288.5,336.5c0,5.3-4.3,9.7-9.7,9.7c-5.3,0-9.7-4.3-9.7-9.7c0-5.3,4.3-9.7,9.7-9.7S288.5,331.2,288.5,336.5z
		 M278.8,268.4c-5.3,0-9.7-4.3-9.7-9.7c0-5.3,4.3-9.7,9.7-9.7c5.3,0,9.7,4.3,9.7,9.7C288.5,264,284.2,268.4,278.8,268.4z
		 M356.2,301.5c5.3,0,9.7,4.3,9.7,9.7c0,1.8-0.5,3.4-1.3,4.8c-1.7,2.9-4.8,4.9-8.4,4.9s-6.7-2-8.4-4.9c-0.8-1.4-1.3-3.1-1.3-4.8
		C346.5,305.8,350.9,301.5,356.2,301.5z M341.3,363.9l-7.2-4.1l17-29.9c1.6,0.4,3.3,0.7,5.1,0.7s3.4-0.3,5.1-0.7l17,29.9l-7.2,4.1
		l17.7,10.4h-65.3L341.3,363.9z M356.2,414.9c-18,0-33-13.4-35.4-30.8h70.7C389.2,401.5,374.2,414.9,356.2,414.9z"/>
</g>
<g>
	<g>
		<path class="st2" d="M432.6,303.6v-39.2h25.9v6.8h-17.6v9.3h15.9v6.8h-15.9v16.2h-8.3V303.6z"/>
		<path class="st2" d="M463.9,303.6v-29.4h7.9v5.1h0.3c0.5-1.8,1.4-3.2,2.7-4.1s2.7-1.4,4.4-1.4c0.8,0,1.5,0.1,2.2,0.3
			c0.7,0.2,1.3,0.5,1.8,0.8l-2.4,6.7c-0.4-0.2-0.8-0.4-1.3-0.5s-1-0.2-1.5-0.2c-1.1,0-2.1,0.3-3,0.8s-1.6,1.2-2.1,2.1
			s-0.8,2-0.8,3.2v16.6H463.9z"/>
		<path class="st2" d="M500.3,304.2c-3,0-5.6-0.6-7.8-1.8c-2.2-1.2-3.8-3-5-5.2c-1.2-2.3-1.8-4.9-1.8-8c0-3,0.6-5.7,1.8-8
			c1.2-2.3,2.8-4.1,5-5.3s4.6-1.9,7.5-1.9c1.9,0,3.7,0.3,5.4,0.9c1.7,0.6,3.1,1.5,4.4,2.8c1.3,1.2,2.2,2.8,2.9,4.7
			c0.7,1.9,1.1,4,1.1,6.5v2.2H489v-5h17.1c0-1.8-0.6-3.2-1.7-4.3c-1.1-1.1-2.5-1.7-4.3-1.7c-1.2,0-2.3,0.3-3.3,0.9
			c-0.9,0.6-1.7,1.3-2.2,2.3s-0.8,2-0.8,3.2v4.8c0,2.2,0.6,3.9,1.8,5.2c1.2,1.3,2.8,1.9,4.9,1.9c1.4,0,2.5-0.3,3.5-0.9
			s1.7-1.4,2.1-2.5l7.5,0.5c-0.6,2.7-2,4.9-4.4,6.5C507,303.3,504,304.2,500.3,304.2z"/>
		<path class="st2" d="M532.5,304.2c-3,0-5.6-0.6-7.8-1.8c-2.2-1.2-3.8-3-5-5.2c-1.2-2.3-1.8-4.9-1.8-8c0-3,0.6-5.7,1.8-8
			s2.8-4.1,5-5.3s4.6-1.9,7.5-1.9c1.9,0,3.7,0.3,5.4,0.9s3.1,1.5,4.4,2.8c1.3,1.2,2.2,2.8,2.9,4.7c0.7,1.9,1.1,4,1.1,6.5v2.2h-24.8
			v-5h17.1c0-1.8-0.6-3.2-1.7-4.3c-1.1-1.1-2.5-1.7-4.3-1.7c-1.2,0-2.3,0.3-3.3,0.9c-0.9,0.6-1.7,1.3-2.2,2.3s-0.8,2-0.8,3.2v4.8
			c0,2.2,0.6,3.9,1.8,5.2c1.2,1.3,2.8,1.9,4.9,1.9c1.4,0,2.5-0.3,3.5-0.9s1.7-1.4,2.1-2.5l7.5,0.5c-0.6,2.7-2,4.9-4.4,6.5
			C539.1,303.3,536.1,304.2,532.5,304.2z"/>
		<path class="st2" d="M572.2,304.1c-1.9,0-3.5-0.3-5-1s-2.6-1.6-3.5-2.9c-0.8-1.3-1.3-2.9-1.3-4.8c0-1.6,0.3-3,0.9-4.1
			s1.4-2,2.4-2.7s2.2-1.2,3.5-1.5s2.7-0.6,4.2-0.7c1.7-0.2,3.1-0.3,4.1-0.5s1.8-0.4,2.3-0.8c0.5-0.3,0.7-0.8,0.7-1.5
			c0-1.2-0.4-2.2-1.1-2.8c-0.8-0.7-1.8-1-3.2-1c-1.5,0-2.6,0.3-3.5,1s-1.4,1.5-1.7,2.4l-7.5-0.6c0.4-1.8,1.1-3.3,2.2-4.6
			c1.1-1.3,2.6-2.3,4.4-3s3.9-1.1,6.3-1.1c1.6,0,3.1,0.2,4.6,0.6s2.8,1,4,1.8s2.1,1.8,2.8,3.1c0.7,1.3,1,2.8,1,4.5v19.8H581v-4.1
			h-0.2c-0.5,0.9-1.1,1.7-1.9,2.4c-0.8,0.7-1.7,1.2-2.8,1.6S573.6,304.1,572.2,304.1z M574.5,298.5c1.2,0,2.3-0.2,3.2-0.7
			s1.6-1.1,2.2-1.9c0.5-0.8,0.8-1.7,0.8-2.8V290c-0.3,0.2-0.6,0.3-1,0.4s-0.9,0.3-1.5,0.4c-0.5,0.1-1.1,0.2-1.6,0.3
			c-0.5,0.1-1,0.2-1.5,0.2c-1,0.1-1.8,0.4-2.5,0.7c-0.7,0.3-1.3,0.7-1.7,1.2s-0.6,1.2-0.6,1.9c0,1.1,0.4,2,1.2,2.5
			C572.2,298.2,573.2,298.5,574.5,298.5z"/>
		<path class="st2" d="M603.2,286.6v17H595v-29.4h7.8v5.2h0.3c0.7-1.7,1.7-3.1,3.3-4.1c1.5-1,3.4-1.5,5.6-1.5c2,0,3.8,0.4,5.3,1.3
			s2.7,2.2,3.5,3.8c0.8,1.7,1.3,3.6,1.3,5.9v18.7H614v-17.2c0-1.8-0.4-3.2-1.4-4.2c-0.9-1-2.2-1.5-3.8-1.5s-3,0.5-4,1.6
			C603.7,283.2,603.2,284.7,603.2,286.6z"/>
		<path class="st2" d="M656,303.6h-8v-4.7h-0.3c-0.4,0.8-0.9,1.6-1.6,2.4c-0.7,0.8-1.6,1.5-2.7,2c-1.1,0.5-2.4,0.8-4,0.8
			c-2.2,0-4.2-0.6-6.1-1.7c-1.8-1.2-3.2-2.9-4.3-5.1s-1.6-5-1.6-8.3c0-3.4,0.5-6.2,1.6-8.4c1.1-2.2,2.5-3.9,4.3-5s3.8-1.7,5.9-1.7
			c1.6,0,3,0.3,4.1,0.8s2,1.2,2.7,2.1c0.7,0.8,1.2,1.6,1.6,2.4h0.2v-14.7h8.1L656,303.6L656,303.6z M648.1,288.9
			c0-2.6-0.5-4.7-1.6-6.3c-1.1-1.5-2.6-2.3-4.6-2.3c-1.3,0-2.5,0.4-3.4,1.1s-1.6,1.7-2.1,3s-0.7,2.8-0.7,4.5s0.2,3.2,0.7,4.5
			s1.2,2.3,2.1,3.1c0.9,0.7,2,1.1,3.4,1.1c2,0,3.5-0.8,4.6-2.4S648.1,291.5,648.1,288.9z"/>
		<path class="st2" d="M675.2,303.6v-39.2h25.9v6.8h-17.6v9.3h15.9v6.8h-15.9v16.2h-8.3V303.6z"/>
		<path class="st2" d="M714.9,304.1c-1.9,0-3.5-0.3-5-1s-2.6-1.6-3.5-2.9c-0.8-1.3-1.3-2.9-1.3-4.8c0-1.6,0.3-3,0.9-4.1
			s1.4-2,2.4-2.7s2.2-1.2,3.5-1.5s2.7-0.6,4.2-0.7c1.7-0.2,3.1-0.3,4.1-0.5s1.8-0.4,2.3-0.8c0.5-0.3,0.7-0.8,0.7-1.5
			c0-1.2-0.4-2.2-1.1-2.8c-0.8-0.7-1.8-1-3.2-1c-1.5,0-2.6,0.3-3.5,1s-1.4,1.5-1.7,2.4l-7.5-0.6c0.4-1.8,1.1-3.3,2.2-4.6
			c1.1-1.3,2.6-2.3,4.4-3s3.9-1.1,6.3-1.1c1.6,0,3.1,0.2,4.6,0.6s2.8,1,4,1.8s2.1,1.8,2.8,3.1c0.7,1.3,1,2.8,1,4.5v19.8h-7.7v-4.1
			h-0.2c-0.5,0.9-1.1,1.7-1.9,2.4c-0.8,0.7-1.7,1.2-2.8,1.6S716.3,304.1,714.9,304.1z M717.2,298.5c1.2,0,2.3-0.2,3.2-0.7
			s1.6-1.1,2.2-1.9c0.5-0.8,0.8-1.7,0.8-2.8V290c-0.3,0.2-0.6,0.3-1,0.4s-0.9,0.3-1.5,0.4c-0.5,0.1-1.1,0.2-1.6,0.3
			c-0.5,0.1-1,0.2-1.5,0.2c-1,0.1-1.8,0.4-2.5,0.7c-0.7,0.3-1.3,0.7-1.7,1.2s-0.6,1.2-0.6,1.9c0,1.1,0.4,2,1.2,2.5
			C714.9,298.2,716,298.5,717.2,298.5z"/>
		<path class="st2" d="M741.8,270.7c-1.2,0-2.2-0.4-3.1-1.2c-0.9-0.8-1.3-1.8-1.3-2.9c0-1.2,0.4-2.1,1.3-2.9
			c0.9-0.8,1.9-1.2,3.1-1.2s2.2,0.4,3.1,1.2s1.3,1.8,1.3,2.9c0,1.2-0.4,2.2-1.3,2.9C744,270.3,743,270.7,741.8,270.7z M737.8,303.6
			v-29.4h8.1v29.4H737.8z"/>
		<path class="st2" d="M752.4,303.6v-29.4h7.9v5.1h0.3c0.5-1.8,1.4-3.2,2.7-4.1s2.7-1.4,4.4-1.4c0.8,0,1.5,0.1,2.2,0.3
			s1.3,0.5,1.8,0.8l-2.4,6.7c-0.4-0.2-0.8-0.4-1.3-0.5s-1-0.2-1.5-0.2c-1.1,0-2.1,0.3-3,0.8s-1.6,1.2-2.1,2.1s-0.8,2-0.8,3.2v16.6
			H752.4z"/>
		<path class="st2" d="M822.7,278.1h-8.4c-0.2-1.4-0.7-2.7-1.5-3.7s-1.7-1.8-2.9-2.4s-2.5-0.8-4-0.8c-2,0-3.8,0.5-5.3,1.5
			s-2.7,2.5-3.5,4.4s-1.2,4.2-1.2,6.9c0,2.8,0.4,5.1,1.3,7c0.8,1.9,2,3.3,3.5,4.3s3.2,1.5,5.2,1.5c1.5,0,2.8-0.3,4-0.8
			s2.2-1.3,2.9-2.3c0.8-1,1.3-2.2,1.6-3.6h8.4c-0.2,1.8-0.8,3.5-1.6,5.2c-0.9,1.7-2,3.1-3.5,4.5s-3.2,2.3-5.2,3.1
			c-2,0.8-4.2,1.1-6.8,1.1c-3.5,0-6.6-0.8-9.4-2.4c-2.7-1.6-4.9-3.9-6.5-6.9s-2.4-6.6-2.4-10.9s0.8-7.9,2.4-10.9
			c1.6-3,3.8-5.3,6.5-6.9s5.9-2.4,9.3-2.4c3,0,5.7,0.6,8.2,1.7s4.4,2.7,6,4.9S822.3,275.1,822.7,278.1z"/>
		<path class="st2" d="M841.7,304.2c-3,0-5.5-0.6-7.7-1.9s-3.8-3-5-5.3s-1.8-4.9-1.8-7.9s0.6-5.7,1.8-8s2.8-4,5-5.3s4.7-1.9,7.7-1.9
			s5.5,0.6,7.7,1.9s3.8,3,5,5.3s1.8,4.9,1.8,8c0,3-0.6,5.6-1.8,7.9s-2.8,4-5,5.3C847.3,303.5,844.7,304.2,841.7,304.2z M841.8,297.8
			c1.4,0,2.5-0.4,3.4-1.2c0.9-0.8,1.6-1.8,2.1-3.2c0.5-1.3,0.7-2.9,0.7-4.6s-0.2-3.2-0.7-4.6c-0.5-1.3-1.2-2.4-2.1-3.2
			c-0.9-0.8-2-1.2-3.4-1.2s-2.5,0.4-3.4,1.2s-1.6,1.8-2.1,3.2c-0.5,1.3-0.7,2.9-0.7,4.6s0.2,3.2,0.7,4.6s1.2,2.4,2.1,3.2
			S840.4,297.8,841.8,297.8z"/>
		<path class="st2" d="M861.5,303.6v-29.4h7.8v5.2h0.3c0.6-1.7,1.6-3.1,3.1-4.1c1.4-1,3.1-1.5,5.1-1.5s3.7,0.5,5.1,1.5
			c1.4,1,2.4,2.4,2.8,4.1h0.3c0.6-1.7,1.7-3,3.3-4s3.4-1.5,5.6-1.5c2.7,0,5,0.9,6.7,2.6s2.6,4.2,2.6,7.4v19.7H896v-18.1
			c0-1.6-0.4-2.9-1.3-3.7c-0.9-0.8-2-1.2-3.2-1.2c-1.5,0-2.6,0.5-3.5,1.4c-0.8,0.9-1.2,2.2-1.2,3.7v17.9h-7.9v-18.3
			c0-1.4-0.4-2.6-1.2-3.4c-0.8-0.9-1.9-1.3-3.2-1.3c-0.9,0-1.7,0.2-2.4,0.7s-1.3,1.1-1.7,1.9s-0.6,1.8-0.6,2.8v17.6L861.5,303.6
			L861.5,303.6z"/>
		<path class="st2" d="M910.6,303.6v-29.4h7.8v5.2h0.3c0.6-1.7,1.6-3.1,3.1-4.1c1.4-1,3.1-1.5,5.1-1.5s3.7,0.5,5.1,1.5
			c1.4,1,2.4,2.4,2.8,4.1h0.3c0.6-1.7,1.7-3,3.3-4s3.4-1.5,5.6-1.5c2.7,0,5,0.9,6.7,2.6s2.6,4.2,2.6,7.4v19.7h-8.1v-18.1
			c0-1.6-0.4-2.9-1.3-3.7c-0.9-0.8-2-1.2-3.2-1.2c-1.5,0-2.6,0.5-3.5,1.4c-0.8,0.9-1.2,2.2-1.2,3.7v17.9h-8v-18.3
			c0-1.4-0.4-2.6-1.2-3.4c-0.8-0.9-1.9-1.3-3.2-1.3c-0.9,0-1.7,0.2-2.4,0.7s-1.3,1.1-1.7,1.9s-0.6,1.8-0.6,2.8v17.6L910.6,303.6
			L910.6,303.6z"/>
		<path class="st2" d="M972.9,304.2c-3,0-5.5-0.6-7.7-1.9s-3.8-3-5-5.3s-1.8-4.9-1.8-7.9s0.6-5.7,1.8-8s2.8-4,5-5.3s4.7-1.9,7.7-1.9
			s5.5,0.6,7.7,1.9s3.8,3,5,5.3s1.8,4.9,1.8,8c0,3-0.6,5.6-1.8,7.9s-2.8,4-5,5.3C978.5,303.5,975.9,304.2,972.9,304.2z M973,297.8
			c1.4,0,2.5-0.4,3.4-1.2c0.9-0.8,1.6-1.8,2.1-3.2c0.5-1.3,0.7-2.9,0.7-4.6s-0.2-3.2-0.7-4.6c-0.5-1.3-1.2-2.4-2.1-3.2
			c-0.9-0.8-2-1.2-3.4-1.2s-2.5,0.4-3.4,1.2s-1.6,1.8-2.1,3.2c-0.5,1.3-0.7,2.9-0.7,4.6s0.2,3.2,0.7,4.6s1.2,2.4,2.1,3.2
			S971.6,297.8,973,297.8z"/>
		<path class="st2" d="M1000.8,286.6v17h-8.1v-29.4h7.8v5.2h0.3c0.7-1.7,1.7-3.1,3.3-4.1c1.5-1,3.4-1.5,5.6-1.5c2,0,3.8,0.4,5.3,1.3
			s2.7,2.2,3.5,3.8c0.8,1.7,1.3,3.6,1.3,5.9v18.7h-8.1v-17.2c0-1.8-0.4-3.2-1.4-4.2c-0.9-1-2.2-1.5-3.8-1.5s-3,0.5-4,1.6
			C1001.4,283.2,1000.9,284.7,1000.8,286.6z"/>
		<path class="st2" d="M1050.6,282.6l-7.5,0.5c-0.1-0.6-0.4-1.2-0.8-1.7s-1-0.9-1.7-1.2c-0.7-0.3-1.5-0.5-2.4-0.5
			c-1.3,0-2.3,0.3-3.2,0.8c-0.9,0.5-1.3,1.2-1.3,2.1c0,0.7,0.3,1.3,0.8,1.8c0.6,0.5,1.5,0.9,2.9,1.2l5.3,1.1c5.6,1.1,8.5,3.8,8.5,8
			c0,1.9-0.6,3.6-1.7,5.1c-1.1,1.4-2.7,2.6-4.6,3.4c-2,0.8-4.2,1.2-6.8,1.2c-3.9,0-7-0.8-9.3-2.4s-3.6-3.8-4-6.6l8-0.4
			c0.2,1.2,0.8,2.1,1.8,2.7s2.1,0.9,3.6,0.9c1.4,0,2.6-0.3,3.5-0.8s1.3-1.3,1.3-2.2c0-0.7-0.3-1.3-0.9-1.8s-1.6-0.8-2.8-1.1l-5.1-1
			c-2.9-0.6-5-1.6-6.4-3s-2.1-3.2-2.1-5.4c0-1.9,0.5-3.5,1.5-4.9s2.5-2.4,4.3-3.2s4.1-1.1,6.6-1.1c3.7,0,6.6,0.8,8.8,2.4
			C1049,277.8,1050.3,279.9,1050.6,282.6z"/>
		<path class="st2" d="M1069.8,304.2c-3,0-5.6-0.6-7.8-1.8c-2.2-1.2-3.8-3-5-5.2s-1.8-4.9-1.8-8c0-3,0.6-5.7,1.8-8s2.8-4.1,5-5.3
			s4.6-1.9,7.5-1.9c1.9,0,3.7,0.3,5.4,0.9s3.1,1.5,4.4,2.8c1.3,1.2,2.2,2.8,2.9,4.7c0.7,1.9,1.1,4,1.1,6.5v2.2h-24.8v-5h17.1
			c0-1.8-0.6-3.2-1.7-4.3c-1.1-1.1-2.5-1.7-4.3-1.7c-1.2,0-2.3,0.3-3.3,0.9s-1.7,1.3-2.2,2.3s-0.8,2-0.8,3.2v4.8
			c0,2.2,0.6,3.9,1.8,5.2s2.8,1.9,4.9,1.9c1.4,0,2.5-0.3,3.5-0.9s1.7-1.4,2.1-2.5l7.5,0.5c-0.6,2.7-2,4.9-4.4,6.5
			C1076.4,303.3,1073.4,304.2,1069.8,304.2z"/>
		<path class="st2" d="M1096.7,286.6v17h-8.1v-29.4h7.8v5.2h0.3c0.7-1.7,1.7-3.1,3.3-4.1c1.5-1,3.4-1.5,5.6-1.5c2,0,3.8,0.4,5.3,1.3
			s2.7,2.2,3.5,3.8c0.8,1.7,1.3,3.6,1.3,5.9v18.7h-8.1v-17.2c0-1.8-0.4-3.2-1.4-4.2c-0.9-1-2.2-1.5-3.8-1.5c-1.6,0-3,0.5-4,1.6
			C1097.3,283.2,1096.8,284.7,1096.7,286.6z"/>
		<path class="st2" d="M1146.5,282.6l-7.5,0.5c-0.1-0.6-0.4-1.2-0.8-1.7s-1-0.9-1.7-1.2c-0.7-0.3-1.5-0.5-2.4-0.5
			c-1.3,0-2.3,0.3-3.2,0.8c-0.9,0.5-1.3,1.2-1.3,2.1c0,0.7,0.3,1.3,0.8,1.8c0.6,0.5,1.5,0.9,2.9,1.2l5.3,1.1c5.6,1.1,8.5,3.8,8.5,8
			c0,1.9-0.6,3.6-1.7,5.1c-1.1,1.4-2.7,2.6-4.6,3.4c-2,0.8-4.2,1.2-6.8,1.2c-3.9,0-7-0.8-9.3-2.4s-3.6-3.8-4-6.6l8-0.4
			c0.2,1.2,0.8,2.1,1.8,2.7s2.1,0.9,3.6,0.9c1.4,0,2.6-0.3,3.5-0.8s1.3-1.3,1.3-2.2c0-0.7-0.3-1.3-0.9-1.8s-1.6-0.8-2.8-1.1l-5.1-1
			c-2.9-0.6-5-1.6-6.4-3s-2.1-3.2-2.1-5.4c0-1.9,0.5-3.5,1.5-4.9s2.5-2.4,4.3-3.2s4.1-1.1,6.6-1.1c3.7,0,6.6,0.8,8.8,2.4
			C1144.9,277.8,1146.1,279.9,1146.5,282.6z"/>
		<path class="st2" d="M1165.7,304.2c-3,0-5.6-0.6-7.8-1.8c-2.2-1.2-3.8-3-5-5.2s-1.8-4.9-1.8-8c0-3,0.6-5.7,1.8-8s2.8-4.1,5-5.3
			s4.6-1.9,7.5-1.9c1.9,0,3.7,0.3,5.4,0.9s3.1,1.5,4.4,2.8c1.3,1.2,2.2,2.8,2.9,4.7c0.7,1.9,1.1,4,1.1,6.5v2.2h-24.8v-5h17.1
			c0-1.8-0.6-3.2-1.7-4.3c-1.1-1.1-2.5-1.7-4.3-1.7c-1.2,0-2.3,0.3-3.3,0.9s-1.7,1.3-2.2,2.3s-0.8,2-0.8,3.2v4.8
			c0,2.2,0.6,3.9,1.8,5.2s2.8,1.9,4.9,1.9c1.4,0,2.5-0.3,3.5-0.9s1.7-1.4,2.1-2.5l7.5,0.5c-0.6,2.7-2,4.9-4.4,6.5
			C1172.3,303.3,1169.3,304.2,1165.7,304.2z"/>
		<path class="st2" d="M439.3,368.2h-8.9l13.5-39.2h10.7l13.5,39.2h-8.9l-9.8-30.2h-0.3L439.3,368.2z M438.7,352.8h21v6.5h-21V352.8
			z"/>
		<path class="st2" d="M480.8,329v39.2h-8.1V329H480.8z"/>
		<path class="st2" d="M500.5,379.4c-2.6,0-4.8-0.4-6.7-1.1c-1.9-0.7-3.4-1.7-4.5-2.9c-1.1-1.2-1.8-2.6-2.2-4.1l7.5-1
			c0.2,0.5,0.6,1,1.1,1.5s1.2,0.9,2,1.2c0.8,0.3,1.8,0.5,3,0.5c1.1,0,2.2-0.2,3.1-0.6s1.7-1,2.2-1.8c0.6-0.8,0.8-1.8,0.8-3.1v-5
			h-0.3c-0.4,0.8-0.9,1.6-1.6,2.3c-0.7,0.7-1.6,1.3-2.8,1.8c-1.1,0.5-2.5,0.7-4,0.7c-2.2,0-4.2-0.5-6-1.5s-3.2-2.6-4.3-4.7
			s-1.6-4.8-1.6-8.1c0-3.3,0.5-6.1,1.6-8.3c1.1-2.2,2.5-3.9,4.3-5s3.8-1.7,5.9-1.7c1.6,0,3,0.3,4.1,0.8s2,1.2,2.7,2.1
			c0.7,0.8,1.2,1.6,1.6,2.4h0.3v-4.9h8.1v29.4c0,2.4-0.6,4.5-1.9,6.2c-1.2,1.7-3,2.9-5.1,3.7C505.7,379,503.2,379.4,500.5,379.4z
			 M500.7,361.6c2,0,3.5-0.7,4.6-2.2s1.6-3.5,1.6-6.1s-0.5-4.6-1.6-6.2c-1.1-1.5-2.6-2.3-4.6-2.3c-1.3,0-2.5,0.4-3.4,1.1
			s-1.6,1.7-2.1,3s-0.7,2.7-0.7,4.4c0,2.5,0.5,4.5,1.6,6C497.2,360.9,498.7,361.6,500.7,361.6z"/>
		<path class="st2" d="M534.7,368.8c-3,0-5.5-0.6-7.7-1.9s-3.8-3-5-5.3s-1.8-4.9-1.8-7.9s0.6-5.7,1.8-8s2.8-4,5-5.3s4.7-1.9,7.7-1.9
			s5.5,0.6,7.7,1.9s3.8,3,5,5.3s1.8,4.9,1.8,8c0,3-0.6,5.6-1.8,7.9s-2.8,4-5,5.3C540.2,368.1,537.6,368.8,534.7,368.8z M534.7,362.4
			c1.4,0,2.5-0.4,3.4-1.2c0.9-0.8,1.6-1.8,2.1-3.2c0.5-1.3,0.7-2.9,0.7-4.6s-0.2-3.2-0.7-4.6c-0.5-1.3-1.2-2.4-2.1-3.2
			c-0.9-0.8-2-1.2-3.4-1.2s-2.5,0.4-3.4,1.2c-0.9,0.8-1.6,1.8-2.1,3.2c-0.5,1.3-0.7,2.9-0.7,4.6s0.2,3.2,0.7,4.6s1.2,2.4,2.1,3.2
			C532.2,362.1,533.3,362.4,534.7,362.4z"/>
		<path class="st2" d="M554.4,368.2v-29.4h7.9v5.1h0.3c0.5-1.8,1.4-3.2,2.7-4.1s2.7-1.4,4.4-1.4c0.8,0,1.5,0.1,2.2,0.3
			c0.7,0.2,1.3,0.5,1.8,0.8l-2.4,6.7c-0.4-0.2-0.8-0.4-1.3-0.5s-1-0.2-1.5-0.2c-1.1,0-2.1,0.3-3,0.8s-1.6,1.2-2.1,2.1
			s-0.8,2-0.8,3.2v16.6H554.4z"/>
		<path class="st2" d="M581.6,335.3c-1.2,0-2.2-0.4-3.1-1.2c-0.9-0.8-1.3-1.8-1.3-2.9c0-1.2,0.4-2.1,1.3-2.9s1.9-1.2,3.1-1.2
			c1.2,0,2.2,0.4,3.1,1.2s1.3,1.8,1.3,2.9c0,1.2-0.4,2.2-1.3,2.9C583.8,334.9,582.8,335.3,581.6,335.3z M577.5,368.2v-29.4h8.1v29.4
			H577.5z"/>
		<path class="st2" d="M607.8,338.8v6.1h-17.7v-6.1H607.8z M594.1,331.8h8.1v27.3c0,0.8,0.1,1.3,0.3,1.7s0.6,0.7,1,0.9
			c0.4,0.2,0.9,0.2,1.5,0.2c0.4,0,0.8,0,1.1-0.1c0.4-0.1,0.7-0.1,0.9-0.2l1.3,6.1c-0.4,0.1-1,0.3-1.7,0.4c-0.7,0.2-1.6,0.3-2.7,0.3
			c-2,0.1-3.7-0.2-5.2-0.8c-1.5-0.6-2.6-1.5-3.4-2.8c-0.8-1.3-1.2-2.9-1.2-4.8L594.1,331.8L594.1,331.8z"/>
		<path class="st2" d="M621.3,351.2v17h-8.1V329h7.9v15h0.3c0.7-1.7,1.7-3.1,3.2-4.1s3.3-1.5,5.6-1.5c2,0,3.8,0.4,5.3,1.3
			s2.7,2.2,3.6,3.8s1.3,3.6,1.3,5.9v18.7h-8.1v-17.2c0-1.8-0.4-3.2-1.4-4.2c-0.9-1-2.2-1.5-3.9-1.5s-3,0.5-4.1,1.6
			C621.9,347.8,621.3,349.3,621.3,351.2z"/>
		<path class="st2" d="M646.8,368.2v-29.4h7.8v5.2h0.3c0.6-1.7,1.6-3.1,3.1-4.1c1.4-1,3.1-1.5,5.1-1.5s3.7,0.5,5.1,1.5
			c1.4,1,2.4,2.4,2.8,4.1h0.3c0.6-1.7,1.7-3,3.3-4s3.4-1.5,5.6-1.5c2.7,0,5,0.9,6.7,2.6s2.6,4.2,2.6,7.4v19.7h-8.1V350
			c0-1.6-0.4-2.9-1.3-3.7c-0.9-0.8-2-1.2-3.2-1.2c-1.5,0-2.6,0.5-3.5,1.4c-0.8,0.9-1.2,2.2-1.2,3.7v17.9h-7.9v-18.3
			c0-1.4-0.4-2.6-1.2-3.4c-0.8-0.9-1.9-1.3-3.2-1.3c-0.9,0-1.7,0.2-2.4,0.7s-1.3,1.1-1.7,1.9s-0.6,1.8-0.6,2.8v17.6h-8.4V368.2z"/>
		<path class="st2" d="M720.3,347.2l-7.5,0.5c-0.1-0.6-0.4-1.2-0.8-1.7c-0.4-0.5-1-0.9-1.7-1.2c-0.7-0.3-1.5-0.5-2.4-0.5
			c-1.3,0-2.3,0.3-3.2,0.8s-1.3,1.2-1.3,2.1c0,0.7,0.3,1.3,0.8,1.8c0.6,0.5,1.5,0.9,2.9,1.2l5.3,1.1c5.6,1.1,8.5,3.8,8.5,8
			c0,1.9-0.6,3.6-1.7,5.1c-1.1,1.4-2.7,2.6-4.6,3.4c-2,0.8-4.2,1.2-6.8,1.2c-3.9,0-7-0.8-9.3-2.4s-3.6-3.8-4-6.6l8-0.4
			c0.2,1.2,0.8,2.1,1.8,2.7s2.1,0.9,3.6,0.9c1.4,0,2.6-0.3,3.5-0.8c0.9-0.6,1.3-1.3,1.3-2.2c0-0.7-0.3-1.3-0.9-1.8
			c-0.6-0.5-1.6-0.8-2.8-1.1l-5.1-1c-2.9-0.6-5-1.6-6.4-3s-2.1-3.2-2.1-5.4c0-1.9,0.5-3.5,1.5-4.9s2.5-2.4,4.3-3.2s4.1-1.1,6.6-1.1
			c3.7,0,6.6,0.8,8.8,2.4C718.7,342.4,719.9,344.5,720.3,347.2z"/>
		<path class="st2" d="M754.7,338.8v6.1h-18.1v-6.1H754.7z M740.7,368.2v-31.5c0-2.1,0.4-3.9,1.3-5.3c0.8-1.4,2-2.5,3.4-3.2
			c1.5-0.7,3.1-1.1,5-1.1c1.2,0,2.4,0.1,3.4,0.3c1,0.2,1.8,0.4,2.3,0.5l-1.4,6.1c-0.3-0.1-0.7-0.2-1.2-0.3c-0.5-0.1-1-0.1-1.4-0.1
			c-1.2,0-2,0.3-2.5,0.8c-0.5,0.6-0.7,1.3-0.7,2.3V368h-8.2V368.2z"/>
		<path class="st2" d="M772.9,368.8c-3,0-5.5-0.6-7.7-1.9s-3.8-3-5-5.3s-1.8-4.9-1.8-7.9s0.6-5.7,1.8-8s2.8-4,5-5.3s4.7-1.9,7.7-1.9
			s5.5,0.6,7.7,1.9s3.8,3,5,5.3s1.8,4.9,1.8,8c0,3-0.6,5.6-1.8,7.9s-2.8,4-5,5.3C778.4,368.1,775.9,368.8,772.9,368.8z M772.9,362.4
			c1.4,0,2.5-0.4,3.4-1.2c0.9-0.8,1.6-1.8,2.1-3.2c0.5-1.3,0.7-2.9,0.7-4.6s-0.2-3.2-0.7-4.6c-0.5-1.3-1.2-2.4-2.1-3.2
			c-0.9-0.8-2-1.2-3.4-1.2s-2.5,0.4-3.4,1.2s-1.6,1.8-2.1,3.2c-0.5,1.3-0.7,2.9-0.7,4.6s0.2,3.2,0.7,4.6s1.2,2.4,2.1,3.2
			S771.6,362.4,772.9,362.4z"/>
		<path class="st2" d="M792.7,368.2v-29.4h7.9v5.1h0.3c0.5-1.8,1.4-3.2,2.7-4.1s2.7-1.4,4.4-1.4c0.8,0,1.5,0.1,2.2,0.3
			s1.3,0.5,1.8,0.8l-2.4,6.7c-0.4-0.2-0.8-0.4-1.3-0.5s-1-0.2-1.5-0.2c-1.1,0-2.1,0.3-3,0.8s-1.6,1.2-2.1,2.1s-0.8,2-0.8,3.2v16.6
			H792.7z"/>
		<path class="st2" d="M849.6,340.3c-0.2-1.5-0.8-2.7-2-3.6s-2.7-1.3-4.7-1.3s-3.6,0.4-4.7,1.2c-1.1,0.8-1.6,1.9-1.6,3.1
			c0,0.7,0.1,1.3,0.4,1.8c0.3,0.5,0.8,1,1.3,1.3c0.6,0.4,1.2,0.7,2,1s1.6,0.5,2.4,0.7l3.5,0.8c1.7,0.4,3.3,0.9,4.7,1.5
			s2.7,1.4,3.7,2.4c1,0.9,1.9,2,2.4,3.3c0.6,1.3,0.9,2.7,0.9,4.3c0,2.4-0.6,4.5-1.8,6.2c-1.2,1.8-2.9,3.1-5.2,4.1s-5,1.4-8.2,1.4
			s-5.9-0.5-8.2-1.5s-4.2-2.4-5.5-4.3s-2-4.3-2.1-7.1h8c0.1,1.3,0.5,2.4,1.1,3.3s1.6,1.5,2.7,2s2.4,0.7,3.8,0.7
			c1.4,0,2.6-0.2,3.7-0.6c1-0.4,1.8-1,2.4-1.7c0.6-0.7,0.9-1.6,0.9-2.5s-0.3-1.6-0.8-2.2s-1.3-1.1-2.3-1.5s-2.2-0.8-3.6-1.1
			l-4.3-1.1c-3.3-0.8-5.9-2.1-7.8-3.8c-1.9-1.7-2.9-4-2.8-6.9c0-2.4,0.6-4.4,1.9-6.2c1.3-1.8,3-3.2,5.3-4.1s4.8-1.5,7.6-1.5
			c2.9,0,5.4,0.5,7.6,1.5s3.9,2.4,5.1,4.1s1.8,3.8,1.9,6.2h-7.7V340.3z"/>
		<path class="st2" d="M876.7,368.8c-3,0-5.5-0.6-7.7-1.9s-3.8-3-5-5.3s-1.8-4.9-1.8-7.9s0.6-5.7,1.8-8s2.8-4,5-5.3s4.7-1.9,7.7-1.9
			s5.5,0.6,7.7,1.9s3.8,3,5,5.3s1.8,4.9,1.8,8c0,3-0.6,5.6-1.8,7.9s-2.8,4-5,5.3C882.3,368.1,879.7,368.8,876.7,368.8z M876.8,362.4
			c1.4,0,2.5-0.4,3.4-1.2c0.9-0.8,1.6-1.8,2.1-3.2c0.5-1.3,0.7-2.9,0.7-4.6s-0.2-3.2-0.7-4.6c-0.5-1.3-1.2-2.4-2.1-3.2
			c-0.9-0.8-2-1.2-3.4-1.2s-2.5,0.4-3.4,1.2s-1.6,1.8-2.1,3.2c-0.5,1.3-0.7,2.9-0.7,4.6s0.2,3.2,0.7,4.6s1.2,2.4,2.1,3.2
			S875.4,362.4,876.8,362.4z"/>
		<path class="st2" d="M909.8,368.8c-3,0-5.6-0.6-7.8-1.9s-3.8-3.1-5-5.3c-1.2-2.3-1.7-4.9-1.7-7.9s0.6-5.6,1.7-7.9
			c1.2-2.3,2.8-4.1,5-5.3c2.2-1.3,4.7-1.9,7.7-1.9c2.6,0,4.8,0.5,6.7,1.4s3.4,2.2,4.6,3.9c1.1,1.7,1.7,3.7,1.9,5.9h-7.7
			c-0.2-1.5-0.8-2.6-1.7-3.5s-2.1-1.3-3.6-1.3c-1.3,0-2.4,0.3-3.3,1s-1.7,1.7-2.2,3s-0.8,2.9-0.8,4.7c0,2.8,0.6,5,1.7,6.5
			c1.1,1.5,2.7,2.3,4.6,2.3c1.4,0,2.6-0.4,3.5-1.3c1-0.8,1.6-2.1,1.8-3.6h7.7c-0.1,2.2-0.7,4.2-1.8,5.9c-1.1,1.7-2.6,3-4.5,4
			C914.6,368.3,912.4,368.8,909.8,368.8z"/>
		<path class="st2" d="M932.2,335.3c-1.2,0-2.2-0.4-3.1-1.2c-0.9-0.8-1.3-1.8-1.3-2.9c0-1.2,0.4-2.1,1.3-2.9
			c0.9-0.8,1.9-1.2,3.1-1.2s2.2,0.4,3.1,1.2s1.3,1.8,1.3,2.9c0,1.2-0.4,2.2-1.3,2.9C934.4,334.9,933.4,335.3,932.2,335.3z
			 M928.1,368.2v-29.4h8.1v29.4H928.1z"/>
		<path class="st2" d="M956.2,368.8c-3,0-5.6-0.6-7.8-1.8c-2.2-1.2-3.8-3-5-5.2s-1.8-4.9-1.8-8c0-3,0.6-5.7,1.8-8s2.8-4.1,5-5.3
			s4.6-1.9,7.5-1.9c1.9,0,3.7,0.3,5.4,0.9s3.1,1.5,4.4,2.8c1.3,1.2,2.2,2.8,2.9,4.7c0.7,1.9,1.1,4,1.1,6.5v2.2h-24.8v-5H962
			c0-1.8-0.6-3.2-1.7-4.3c-1.1-1.1-2.5-1.7-4.3-1.7c-1.2,0-2.3,0.3-3.3,0.9s-1.7,1.3-2.2,2.3s-0.8,2-0.8,3.2v4.8
			c0,2.2,0.6,3.9,1.8,5.2s2.8,1.9,4.9,1.9c1.4,0,2.5-0.3,3.5-0.9s1.7-1.4,2.1-2.5l7.5,0.5c-0.6,2.7-2,4.9-4.4,6.5
			C962.8,367.9,959.8,368.8,956.2,368.8z"/>
		<path class="st2" d="M990.6,338.8v6.1h-17.7v-6.1H990.6z M976.9,331.8h8.1v27.3c0,0.8,0.1,1.3,0.3,1.7s0.6,0.7,1,0.9
			c0.4,0.2,0.9,0.2,1.5,0.2c0.4,0,0.8,0,1.1-0.1c0.4-0.1,0.7-0.1,0.9-0.2l1.3,6.1c-0.4,0.1-1,0.3-1.7,0.4c-0.7,0.2-1.6,0.3-2.7,0.3
			c-2,0.1-3.7-0.2-5.2-0.8c-1.5-0.6-2.6-1.5-3.4-2.8s-1.2-2.9-1.2-4.8L976.9,331.8L976.9,331.8z"/>
		<path class="st2" d="M1000.7,379.6c-1.1,0-2.1-0.1-3-0.3c-0.8-0.2-1.5-0.4-1.9-0.6l1.8-6.3c1,0.3,1.8,0.4,2.6,0.5s1.4-0.2,2-0.5
			c0.6-0.4,1-1,1.4-1.9l0.6-1.4l-10.6-30.2h8.6l6.1,21.6h0.3l6.1-21.6h8.6l-11.5,32.7c-0.6,1.6-1.3,3-2.3,4.2s-2.2,2.2-3.7,2.9
			C1004.4,379.3,1002.7,379.6,1000.7,379.6z"/>
	</g>
</g>
</svg>
