<?xml version="1.0" encoding="utf-8"?>
<!-- Generator: Adobe Illustrator 23.1.1, SVG Export Plug-In . SVG Version: 6.00 Build 0)  -->
<svg version="1.1" id="Layer_1" xmlns="http://www.w3.org/2000/svg" xmlns:xlink="http://www.w3.org/1999/xlink" x="0px" y="0px"
	 viewBox="0 0 1781.8 359" style="enable-background:new 0 0 1781.8 359;" xml:space="preserve">
<style type="text/css">
	.st0{fill:none;}
	.st1{fill:none;stroke:#231F20;stroke-width:10;stroke-miterlimit:10;}
	.st2{fill:#231F20;}
	.st3{fill:#FFFFFF;stroke:#231F20;stroke-width:10;stroke-miterlimit:10;}
	.st4{fill:#FFFFFF;}
	.st5{fill:#FFFFFF;stroke:#231F20;stroke-width:7;stroke-miterlimit:10;}
</style>
<g>
	<g>
		<line class="st0" x1="1672.9" y1="240.9" x2="1672.9" y2="159.6"/>
		<g>
			<line class="st1" x1="1672.9" y1="240.9" x2="1672.9" y2="179"/>
			<g>
				<polygon class="st2" points="1686.4,182.9 1672.9,159.6 1659.4,182.9 				"/>
			</g>
		</g>
	</g>
	<g>
		<line class="st0" x1="1672.9" y1="132.3" x2="1672.9" y2="91"/>
		<g>
			<line class="st1" x1="1672.9" y1="132.3" x2="1672.9" y2="110.4"/>
			<g>
				<polygon class="st2" points="1686.4,114.3 1672.9,91 1659.4,114.3 				"/>
			</g>
		</g>
	</g>
	<path class="st3" d="M1776.9,184.4c0,19.8-16,35.8-35.8,35.8s-35.8-16-35.8-35.8H1776.9z"/>
	<circle class="st3" cx="1672.9" cy="78.2" r="12.8"/>
	<circle class="st3" cx="1672.9" cy="146.8" r="12.8"/>
	<g>
		<path class="st4" d="M1672.9,81.5"/>
	</g>
	<g>
		<path class="st4" d="M1617.1,121.1"/>
	</g>
	<g>
		<g>
			<polyline class="st1" points="1741.1,92.2 1741.1,78.2 1686.5,78.2 			"/>
			<g>
				<polygon class="st2" points="1754.6,88.3 1741.1,111.6 1727.7,88.3 				"/>
			</g>
		</g>
	</g>
	<g>
		<g>
			<polyline class="st1" points="1604.7,92.2 1604.7,78.2 1659.3,78.2 			"/>
			<g>
				<polygon class="st2" points="1618.2,88.3 1604.7,111.6 1591.2,88.3 				"/>
			</g>
		</g>
	</g>
	<g>
		<line class="st0" x1="1707.9" y1="182.7" x2="1741.1" y2="124.5"/>
		<g>
			<line class="st1" x1="1717.5" y1="165.9" x2="1741.1" y2="124.5"/>
			<g>
				<polygon class="st2" points="1731.2,169.1 1707.9,182.7 1707.8,155.8 				"/>
			</g>
		</g>
	</g>
	<g>
		<line class="st0" x1="1774.3" y1="182.7" x2="1741.1" y2="124.5"/>
		<g>
			<line class="st1" x1="1764.7" y1="165.9" x2="1741.1" y2="124.5"/>
			<g>
				<polygon class="st2" points="1774.5,155.8 1774.3,182.7 1751.1,169.1 				"/>
			</g>
		</g>
	</g>
	<rect x="1604.7" y="242.7" class="st3" width="136.4" height="24.2"/>
	<path class="st5" d="M1672.9,82.4"/>
	<circle class="st3" cx="1741.1" cy="124.5" r="12.8"/>
	<path class="st3" d="M1640.5,184.4c0,19.8-16,35.8-35.8,35.8s-35.8-16-35.8-35.8H1640.5z"/>
	<g>
		<line class="st0" x1="1571.5" y1="182.7" x2="1604.7" y2="124.5"/>
		<g>
			<line class="st1" x1="1581.1" y1="165.9" x2="1604.7" y2="124.5"/>
			<g>
				<polygon class="st2" points="1594.7,169.1 1571.5,182.7 1571.3,155.8 				"/>
			</g>
		</g>
	</g>
	<g>
		<line class="st0" x1="1637.9" y1="182.7" x2="1604.7" y2="124.5"/>
		<g>
			<line class="st1" x1="1628.3" y1="165.9" x2="1604.7" y2="124.5"/>
			<g>
				<polygon class="st2" points="1638.1,155.8 1637.9,182.7 1614.7,169.1 				"/>
			</g>
		</g>
	</g>
	<circle class="st3" cx="1604.7" cy="124.5" r="12.8"/>
</g>
<g>
	<path class="st2" d="M6.3,141.8V63.2H59v13.7H23.2v18.7h32.3v13.7H23.2v32.5H6.3z"/>
	<path class="st2" d="M69,141.8v-59h16v10.3h0.6c1.1-3.7,2.9-6.4,5.5-8.3c2.6-1.9,5.5-2.8,8.8-2.8c1.6,0,3.1,0.2,4.5,0.6
		c1.4,0.4,2.6,0.9,3.7,1.6l-5,13.5c-0.8-0.4-1.6-0.7-2.5-1c-0.9-0.3-1.9-0.4-3.1-0.4c-2.2,0-4.2,0.5-6.1,1.6c-1.8,1-3.3,2.5-4.3,4.3
		c-1.1,1.8-1.6,3.9-1.6,6.3v33.4H69z"/>
	<path class="st2" d="M140.2,143c-6.1,0-11.4-1.2-15.8-3.7c-4.4-2.5-7.8-6-10.2-10.5c-2.4-4.5-3.6-9.9-3.6-16.2
		c0-6.1,1.2-11.4,3.6-16c2.4-4.6,5.7-8.2,10.1-10.7c4.3-2.6,9.4-3.8,15.3-3.8c3.9,0,7.6,0.6,11,1.9c3.4,1.2,6.4,3.1,8.9,5.6
		c2.5,2.5,4.5,5.6,6,9.3c1.4,3.7,2.1,8.1,2.1,13.1v4.5h-50.3v-10.1H152c0-3.5-1.2-6.4-3.4-8.7s-5.2-3.4-8.8-3.4
		c-2.5,0-4.7,0.6-6.7,1.7c-1.9,1.1-3.4,2.7-4.5,4.6c-1.1,1.9-1.6,4-1.7,6.3v9.6c0,4.4,1.2,7.9,3.6,10.4c2.4,2.5,5.7,3.8,9.9,3.8
		c2.7,0,5.1-0.6,7.2-1.7c2-1.2,3.5-2.9,4.3-5.1l15.3,1c-1.2,5.5-4.1,9.9-8.8,13.1C153.6,141.4,147.6,143,140.2,143z"/>
	<path class="st2" d="M205.5,143c-6.1,0-11.4-1.2-15.8-3.7c-4.4-2.5-7.8-6-10.2-10.5c-2.4-4.5-3.6-9.9-3.6-16.2
		c0-6.1,1.2-11.4,3.6-16c2.4-4.6,5.7-8.2,10.1-10.7c4.3-2.6,9.4-3.8,15.3-3.8c3.9,0,7.6,0.6,11,1.9c3.4,1.2,6.4,3.1,8.9,5.6
		c2.5,2.5,4.5,5.6,6,9.3c1.4,3.7,2.1,8.1,2.1,13.1v4.5h-50.3v-10.1h34.8c0-3.5-1.2-6.4-3.4-8.7c-2.3-2.3-5.2-3.4-8.8-3.4
		c-2.5,0-4.7,0.6-6.7,1.7c-1.9,1.1-3.4,2.7-4.5,4.6c-1.1,1.9-1.6,4-1.7,6.3v9.6c0,4.4,1.2,7.9,3.6,10.4c2.4,2.5,5.7,3.8,9.9,3.8
		c2.7,0,5.1-0.6,7.2-1.7c2-1.2,3.5-2.9,4.3-5.1l15.3,1c-1.2,5.5-4.1,9.9-8.8,13.1C218.9,141.4,212.9,143,205.5,143z"/>
	<path class="st2" d="M286,143c-3.8,0-7.2-0.7-10.2-2c-3-1.3-5.3-3.3-7-5.9c-1.7-2.6-2.6-5.8-2.6-9.7c0-3.3,0.6-6,1.8-8.3
		c1.2-2.2,2.9-4,5-5.4c2.1-1.4,4.5-2.4,7.2-3.1c2.7-0.7,5.5-1.2,8.4-1.5c3.5-0.3,6.3-0.7,8.4-1c2.1-0.3,3.7-0.9,4.6-1.5
		c1-0.7,1.4-1.6,1.4-2.9c0-2.5-0.8-4.4-2.3-5.7c-1.5-1.3-3.7-2-6.6-2c-3,0-5.3,0.6-7.1,1.9c-1.8,1.3-2.9,2.9-3.5,4.9l-15.3-1.2
		c0.8-3.6,2.3-6.7,4.5-9.3c2.3-2.6,5.2-4.6,8.9-6.1c3.6-1.4,7.9-2.1,12.8-2.1c3.2,0,6.3,0.4,9.3,1.2c3,0.8,5.7,2,8,3.6
		c2.4,1.6,4.2,3.7,5.6,6.2c1.4,2.5,2.1,5.5,2.1,9v39.8h-15.7v-8.2h-0.5c-1,1.8-2.2,3.5-3.8,4.9c-1.6,1.4-3.5,2.5-5.8,3.3
		C291.6,142.6,289,143,286,143z M290.7,131.7c2.4,0,4.6-0.5,6.4-1.4c1.9-1,3.3-2.3,4.4-3.9c1.1-1.6,1.6-3.5,1.6-5.6v-6.3
		c-0.5,0.3-1.2,0.6-2.1,0.9c-0.9,0.3-1.9,0.5-3,0.7c-1.1,0.2-2.2,0.4-3.3,0.6c-1.1,0.2-2.1,0.3-3,0.4c-1.9,0.3-3.6,0.7-5.1,1.3
		c-1.4,0.6-2.6,1.4-3.4,2.5c-0.8,1-1.2,2.3-1.2,3.9c0,2.2,0.8,3.9,2.5,5.1C286.1,131.1,288.2,131.7,290.7,131.7z"/>
	<path class="st2" d="M349,107.8v34.1h-16.5v-59h15.8v10.4h0.7c1.3-3.4,3.5-6.1,6.6-8.2c3.1-2,6.9-3,11.3-3c4.1,0,7.7,0.9,10.8,2.7
		c3.1,1.8,5.5,4.3,7.2,7.7c1.7,3.3,2.6,7.3,2.6,11.8v37.5h-16.5v-34.6c0-3.6-0.9-6.4-2.8-8.5c-1.9-2-4.5-3.1-7.8-3.1
		c-3.3,0-6,1.1-8.1,3.2C350,101,349,103.9,349,107.8z"/>
	<path class="st2" d="M456.3,141.8H440v-9.4h-0.7c-0.8,1.6-1.9,3.3-3.3,4.9c-1.4,1.6-3.2,2.9-5.5,4c-2.2,1-5,1.6-8.2,1.6
		c-4.5,0-8.6-1.2-12.3-3.5c-3.7-2.3-6.6-5.7-8.7-10.3c-2.1-4.5-3.2-10.1-3.2-16.6c0-6.8,1.1-12.4,3.3-16.9c2.2-4.5,5.1-7.9,8.8-10.1
		c3.7-2.2,7.7-3.4,12.1-3.4c3.3,0,6.1,0.6,8.4,1.7c2.2,1.1,4,2.5,5.4,4.1c1.4,1.7,2.4,3.3,3.2,4.9h0.5V63.2h16.5V141.8z
		 M440.1,112.4c0-5.3-1.1-9.5-3.3-12.6c-2.2-3.1-5.3-4.7-9.3-4.7c-2.7,0-5,0.7-6.9,2.2c-1.9,1.5-3.3,3.5-4.2,6.1
		c-1,2.6-1.4,5.6-1.4,9c0,3.4,0.5,6.5,1.5,9.1c1,2.6,2.4,4.7,4.2,6.1c1.8,1.5,4.1,2.2,6.9,2.2c4,0,7.1-1.6,9.3-4.8
		C439,121.8,440.1,117.6,440.1,112.4z"/>
	<path class="st2" d="M495.2,141.8V63.2h52.6v13.7H512v18.7h32.3v13.7H512v32.5H495.2z"/>
	<path class="st2" d="M575.1,143c-3.8,0-7.2-0.7-10.2-2c-3-1.3-5.3-3.3-7-5.9c-1.7-2.6-2.6-5.8-2.6-9.7c0-3.3,0.6-6,1.8-8.3
		c1.2-2.2,2.9-4,5-5.4c2.1-1.4,4.5-2.4,7.2-3.1c2.7-0.7,5.5-1.2,8.4-1.5c3.5-0.3,6.3-0.7,8.4-1c2.1-0.3,3.7-0.9,4.6-1.5
		c1-0.7,1.4-1.6,1.4-2.9c0-2.5-0.8-4.4-2.3-5.7c-1.5-1.3-3.7-2-6.6-2c-3,0-5.3,0.6-7.1,1.9c-1.8,1.3-2.9,2.9-3.5,4.9l-15.3-1.2
		c0.8-3.6,2.3-6.7,4.5-9.3c2.3-2.6,5.2-4.6,8.9-6.1c3.6-1.4,7.9-2.1,12.8-2.1c3.2,0,6.3,0.4,9.3,1.2c3,0.8,5.7,2,8,3.6
		c2.4,1.6,4.2,3.7,5.6,6.2c1.4,2.5,2.1,5.5,2.1,9v39.8h-15.7v-8.2h-0.5c-1,1.8-2.2,3.5-3.8,4.9c-1.6,1.4-3.5,2.5-5.8,3.3
		C580.6,142.6,578,143,575.1,143z M579.8,131.7c2.4,0,4.6-0.5,6.4-1.4s3.3-2.3,4.4-3.9c1.1-1.6,1.6-3.5,1.6-5.6v-6.3
		c-0.5,0.3-1.2,0.6-2.1,0.9c-0.9,0.3-1.9,0.5-3,0.7c-1.1,0.2-2.2,0.4-3.3,0.6c-1.1,0.2-2.1,0.3-3,0.4c-1.9,0.3-3.6,0.7-5.1,1.3
		c-1.4,0.6-2.6,1.4-3.4,2.5c-0.8,1-1.2,2.3-1.2,3.9c0,2.2,0.8,3.9,2.5,5.1C575.2,131.1,577.2,131.7,579.8,131.7z"/>
	<path class="st2" d="M629.8,75.9c-2.4,0-4.5-0.8-6.2-2.4c-1.8-1.6-2.7-3.6-2.7-5.9c0-2.3,0.9-4.3,2.7-5.9c1.8-1.6,3.9-2.4,6.2-2.4
		c2.4,0,4.5,0.8,6.2,2.4c1.8,1.6,2.7,3.5,2.7,5.9c0,2.4-0.9,4.3-2.7,5.9C634.2,75.1,632.2,75.9,629.8,75.9z M621.5,141.8v-59H638v59
		H621.5z"/>
	<path class="st2" d="M651.2,141.8v-59h16v10.3h0.6c1.1-3.7,2.9-6.4,5.5-8.3c2.6-1.9,5.5-2.8,8.8-2.8c1.6,0,3.1,0.2,4.5,0.6
		c1.4,0.4,2.6,0.9,3.7,1.6l-5,13.5c-0.8-0.4-1.6-0.7-2.5-1c-0.9-0.3-1.9-0.4-3.1-0.4c-2.2,0-4.2,0.5-6.1,1.6c-1.8,1-3.3,2.5-4.3,4.3
		c-1.1,1.8-1.6,3.9-1.6,6.3v33.4H651.2z"/>
	<path class="st2" d="M793.8,90.7h-17c-0.4-2.9-1.4-5.4-3-7.4c-1.5-2.1-3.5-3.7-5.9-4.8c-2.4-1.1-5.2-1.7-8.2-1.7
		c-4.1,0-7.7,1-10.8,3c-3.1,2-5.4,4.9-7.1,8.8c-1.7,3.8-2.5,8.5-2.5,13.9c0,5.6,0.8,10.3,2.5,14.1c1.7,3.8,4.1,6.7,7.1,8.6
		c3,1.9,6.6,2.9,10.6,2.9c3,0,5.7-0.5,8.1-1.6c2.4-1,4.4-2.6,6-4.5c1.6-2,2.6-4.4,3.2-7.1l17,0.1c-0.4,3.6-1.5,7.1-3.3,10.4
		c-1.7,3.3-4.1,6.3-7,8.9c-2.9,2.6-6.4,4.7-10.5,6.2c-4.1,1.5-8.6,2.3-13.7,2.3c-7.1,0-13.4-1.6-19-4.8c-5.6-3.2-10-7.8-13.2-13.8
		c-3.2-6-4.8-13.3-4.8-21.8c0-8.6,1.6-15.9,4.9-21.9c3.3-6,7.7-10.6,13.3-13.8c5.6-3.2,11.9-4.7,18.9-4.7c6.1,0,11.7,1.1,16.6,3.4
		c4.9,2.2,9,5.5,12.1,9.8C791.2,79.5,793.1,84.7,793.8,90.7z"/>
	<path class="st2" d="M832.5,143c-6,0-11.2-1.3-15.6-3.8c-4.4-2.5-7.8-6.1-10.2-10.7c-2.4-4.6-3.6-9.9-3.6-15.9
		c0-6.1,1.2-11.4,3.6-16c2.4-4.6,5.8-8.1,10.2-10.7c4.4-2.5,9.6-3.8,15.6-3.8c6,0,11.2,1.3,15.6,3.8c4.4,2.5,7.8,6.1,10.2,10.7
		c2.4,4.6,3.6,9.9,3.6,16c0,6-1.2,11.3-3.6,15.9c-2.4,4.6-5.8,8.1-10.2,10.7C843.8,141.7,838.6,143,832.5,143z M832.6,130.3
		c2.7,0,5-0.8,6.9-2.3c1.8-1.5,3.2-3.7,4.2-6.4c0.9-2.7,1.4-5.7,1.4-9.2c0-3.4-0.5-6.5-1.4-9.2c-0.9-2.7-2.3-4.8-4.2-6.4
		c-1.8-1.6-4.1-2.3-6.9-2.3c-2.8,0-5.1,0.8-7,2.3c-1.9,1.6-3.3,3.7-4.2,6.4c-0.9,2.7-1.4,5.8-1.4,9.2c0,3.4,0.5,6.5,1.4,9.2
		c0.9,2.7,2.4,4.8,4.2,6.4C827.5,129.6,829.8,130.3,832.6,130.3z"/>
	<path class="st2" d="M872.7,141.8v-59h15.8v10.4h0.7c1.2-3.5,3.3-6.2,6.2-8.2c2.9-2,6.4-3,10.4-3c4.1,0,7.6,1,10.4,3
		c2.9,2,4.8,4.7,5.7,8.2h0.6c1.2-3.4,3.4-6.1,6.6-8.1c3.2-2,7-3.1,11.4-3.1c5.6,0,10.1,1.7,13.6,5.2c3.5,3.5,5.2,8.4,5.2,14.8v39.7
		h-16.5v-36.4c0-3.3-0.9-5.7-2.6-7.4c-1.8-1.6-4-2.5-6.6-2.5c-3,0-5.3,0.9-7,2.8c-1.7,1.9-2.5,4.4-2.5,7.4v36h-16v-36.8
		c0-2.9-0.8-5.2-2.5-6.9c-1.7-1.7-3.9-2.6-6.6-2.6c-1.8,0-3.5,0.5-4.9,1.4c-1.5,0.9-2.6,2.2-3.5,3.8c-0.9,1.6-1.3,3.5-1.3,5.7v35.4
		H872.7z"/>
	<path class="st2" d="M972.3,141.8v-59h15.8v10.4h0.7c1.2-3.5,3.3-6.2,6.2-8.2c2.9-2,6.4-3,10.4-3c4.1,0,7.6,1,10.4,3
		c2.9,2,4.8,4.7,5.7,8.2h0.6c1.2-3.4,3.4-6.1,6.6-8.1c3.2-2,7-3.1,11.4-3.1c5.6,0,10.1,1.7,13.6,5.2c3.5,3.5,5.2,8.4,5.2,14.8v39.7
		h-16.5v-36.4c0-3.3-0.9-5.7-2.6-7.4c-1.8-1.6-4-2.5-6.6-2.5c-3,0-5.3,0.9-7,2.8c-1.7,1.9-2.5,4.4-2.5,7.4v36h-16v-36.8
		c0-2.9-0.8-5.2-2.5-6.9c-1.7-1.7-3.9-2.6-6.6-2.6c-1.8,0-3.5,0.5-4.9,1.4c-1.5,0.9-2.6,2.2-3.5,3.8c-0.9,1.6-1.3,3.5-1.3,5.7v35.4
		H972.3z"/>
	<path class="st2" d="M1099,143c-6,0-11.2-1.3-15.6-3.8c-4.4-2.5-7.8-6.1-10.2-10.7c-2.4-4.6-3.6-9.9-3.6-15.9
		c0-6.1,1.2-11.4,3.6-16c2.4-4.6,5.8-8.1,10.2-10.7c4.4-2.5,9.6-3.8,15.6-3.8c6,0,11.2,1.3,15.6,3.8s7.8,6.1,10.1,10.7
		c2.4,4.6,3.6,9.9,3.6,16c0,6-1.2,11.3-3.6,15.9c-2.4,4.6-5.8,8.1-10.1,10.7C1110.2,141.7,1105,143,1099,143z M1099,130.3
		c2.7,0,5-0.8,6.9-2.3c1.8-1.5,3.2-3.7,4.2-6.4c0.9-2.7,1.4-5.7,1.4-9.2c0-3.4-0.5-6.5-1.4-9.2c-0.9-2.7-2.3-4.8-4.2-6.4
		c-1.8-1.6-4.1-2.3-6.9-2.3c-2.8,0-5.1,0.8-7,2.3c-1.9,1.6-3.3,3.7-4.2,6.4c-0.9,2.7-1.4,5.8-1.4,9.2c0,3.4,0.5,6.5,1.4,9.2
		c0.9,2.7,2.4,4.8,4.2,6.4C1093.9,129.6,1096.3,130.3,1099,130.3z"/>
	<path class="st2" d="M1155.6,107.8v34.1h-16.5v-59h15.8v10.4h0.7c1.3-3.4,3.5-6.1,6.6-8.2c3.1-2,6.9-3,11.3-3
		c4.1,0,7.8,0.9,10.8,2.7c3.1,1.8,5.5,4.3,7.2,7.7c1.7,3.3,2.6,7.3,2.6,11.8v37.5h-16.5v-34.6c0-3.6-0.9-6.4-2.8-8.5
		c-1.9-2-4.5-3.1-7.8-3.1c-3.3,0-6,1.1-8.1,3.2C1156.7,101,1155.7,103.9,1155.6,107.8z"/>
	<path class="st2" d="M1256.7,99.7l-15.1,0.9c-0.3-1.3-0.8-2.4-1.7-3.5c-0.9-1-2-1.9-3.4-2.5c-1.4-0.6-3-0.9-4.9-0.9
		c-2.6,0-4.7,0.5-6.5,1.6c-1.8,1.1-2.6,2.5-2.6,4.2c0,1.4,0.6,2.6,1.7,3.6c1.1,1,3.1,1.8,5.9,2.3l10.8,2.2
		c11.4,2.3,17.2,7.6,17.2,16c0,3.9-1.1,7.3-3.4,10.2c-2.3,2.9-5.4,5.2-9.4,6.8s-8.5,2.4-13.7,2.4c-7.9,0-14.2-1.6-18.8-4.9
		s-7.4-7.7-8.2-13.3l16.3-0.8c0.5,2.4,1.7,4.2,3.6,5.4c1.9,1.2,4.3,1.9,7.3,1.9c2.9,0,5.2-0.6,7-1.7c1.8-1.1,2.7-2.6,2.7-4.3
		c0-1.5-0.7-2.7-1.9-3.7c-1.2-1-3.2-1.7-5.7-2.2l-10.3-2c-5.8-1.2-10.1-3.1-13-6c-2.8-2.8-4.3-6.5-4.3-10.9c0-3.8,1-7.1,3.1-9.8
		c2.1-2.7,5-4.9,8.8-6.3c3.8-1.5,8.2-2.2,13.3-2.2c7.5,0,13.5,1.6,17.8,4.7C1253.4,90,1255.9,94.3,1256.7,99.7z"/>
	<path class="st2" d="M1295.6,143c-6.1,0-11.4-1.2-15.8-3.7c-4.4-2.5-7.8-6-10.2-10.5c-2.4-4.5-3.6-9.9-3.6-16.2
		c0-6.1,1.2-11.4,3.6-16c2.4-4.6,5.7-8.2,10.1-10.7c4.3-2.6,9.4-3.8,15.3-3.8c3.9,0,7.6,0.6,11,1.9c3.4,1.2,6.4,3.1,8.9,5.6
		c2.5,2.5,4.5,5.6,6,9.3c1.4,3.7,2.1,8.1,2.1,13.1v4.5h-50.3v-10.1h34.8c0-3.5-1.2-6.4-3.4-8.7s-5.2-3.4-8.8-3.4
		c-2.5,0-4.7,0.6-6.7,1.7c-1.9,1.1-3.4,2.7-4.5,4.6c-1.1,1.9-1.6,4-1.7,6.3v9.6c0,4.4,1.2,7.9,3.6,10.4c2.4,2.5,5.7,3.8,9.9,3.8
		c2.7,0,5.1-0.6,7.2-1.7c2-1.2,3.5-2.9,4.3-5.1l15.3,1c-1.2,5.5-4.1,9.9-8.8,13.1C1309.1,141.4,1303,143,1295.6,143z"/>
	<path class="st2" d="M1350.3,107.8v34.1h-16.5v-59h15.8v10.4h0.7c1.3-3.4,3.5-6.1,6.6-8.2c3.1-2,6.9-3,11.3-3
		c4.1,0,7.8,0.9,10.8,2.7c3.1,1.8,5.5,4.3,7.2,7.7c1.7,3.3,2.6,7.3,2.6,11.8v37.5h-16.5v-34.6c0-3.6-0.9-6.4-2.8-8.5
		c-1.9-2-4.5-3.1-7.8-3.1c-3.3,0-6,1.1-8.1,3.2C1351.4,101,1350.3,103.9,1350.3,107.8z"/>
	<path class="st2" d="M1451.3,99.7l-15.1,0.9c-0.3-1.3-0.8-2.4-1.7-3.5c-0.9-1-2-1.9-3.4-2.5c-1.4-0.6-3-0.9-4.9-0.9
		c-2.6,0-4.7,0.5-6.5,1.6c-1.8,1.1-2.6,2.5-2.6,4.2c0,1.4,0.6,2.6,1.7,3.6c1.1,1,3.1,1.8,5.9,2.3l10.8,2.2
		c11.4,2.3,17.2,7.6,17.2,16c0,3.9-1.1,7.3-3.4,10.2c-2.3,2.9-5.4,5.2-9.4,6.8s-8.5,2.4-13.7,2.4c-7.9,0-14.2-1.6-18.8-4.9
		s-7.4-7.7-8.2-13.3l16.3-0.8c0.5,2.4,1.7,4.2,3.6,5.4c1.9,1.2,4.3,1.9,7.3,1.9c2.9,0,5.2-0.6,7-1.7c1.8-1.1,2.7-2.6,2.7-4.3
		c0-1.5-0.7-2.7-1.9-3.7c-1.2-1-3.2-1.7-5.7-2.2l-10.3-2c-5.8-1.2-10.1-3.1-13-6c-2.8-2.8-4.3-6.5-4.3-10.9c0-3.8,1-7.1,3.1-9.8
		c2.1-2.7,5-4.9,8.8-6.3c3.8-1.5,8.2-2.2,13.3-2.2c7.5,0,13.5,1.6,17.8,4.7C1448.1,90,1450.6,94.3,1451.3,99.7z"/>
	<path class="st2" d="M1490.3,143c-6.1,0-11.4-1.2-15.8-3.7c-4.4-2.5-7.8-6-10.2-10.5c-2.4-4.5-3.6-9.9-3.6-16.2
		c0-6.1,1.2-11.4,3.6-16c2.4-4.6,5.7-8.2,10.1-10.7c4.3-2.6,9.4-3.8,15.3-3.8c3.9,0,7.6,0.6,11,1.9c3.4,1.2,6.4,3.1,8.9,5.6
		c2.5,2.5,4.5,5.6,6,9.3c1.4,3.7,2.1,8.1,2.1,13.1v4.5h-50.3v-10.1h34.8c0-3.5-1.2-6.4-3.4-8.7s-5.2-3.4-8.8-3.4
		c-2.5,0-4.7,0.6-6.7,1.7c-1.9,1.1-3.4,2.7-4.5,4.6c-1.1,1.9-1.6,4-1.7,6.3v9.6c0,4.4,1.2,7.9,3.6,10.4s5.7,3.8,9.9,3.8
		c2.7,0,5.1-0.6,7.2-1.7c2-1.2,3.5-2.9,4.3-5.1l15.3,1c-1.2,5.5-4.1,9.9-8.8,13.1C1503.7,141.4,1497.7,143,1490.3,143z"/>
	<path class="st2" d="M20.1,275.2H2l27.4-78.6h21.7l27.4,78.6h-18l-19.9-60.7H40L20.1,275.2z M18.9,244.3h42.5v13H18.9V244.3z"/>
	<path class="st2" d="M104.3,196.6v78.6H87.8v-78.6H104.3z"/>
	<path class="st2" d="M144.3,297.7c-5.3,0-9.8-0.7-13.6-2.1c-3.8-1.4-6.9-3.4-9.1-5.8c-2.3-2.4-3.7-5.1-4.4-8.1l15.3-2
		c0.4,1,1.2,2,2.2,3c1,1,2.4,1.8,4,2.4c1.7,0.6,3.7,0.9,6,0.9c2.3,0,4.4-0.4,6.3-1.1c1.9-0.8,3.4-1.9,4.5-3.6
		c1.1-1.6,1.7-3.7,1.6-6.3v-10.2h-0.7c-0.7,1.6-1.8,3.2-3.3,4.6c-1.4,1.5-3.3,2.6-5.6,3.6c-2.3,0.9-5,1.4-8.2,1.4
		c-4.5,0-8.5-1-12.2-3.1c-3.7-2.1-6.6-5.2-8.7-9.5c-2.2-4.3-3.2-9.7-3.2-16.2c0-6.7,1.1-12.3,3.3-16.7c2.2-4.5,5.1-7.8,8.8-10.1
		c3.7-2.2,7.7-3.3,12.1-3.3c3.3,0,6.1,0.6,8.4,1.7c2.3,1.1,4.1,2.5,5.5,4.1c1.4,1.7,2.5,3.3,3.2,4.9h0.6v-9.9h16.4v59
		c0,4.9-1.3,9-3.8,12.4c-2.5,3.3-6,5.8-10.4,7.5C154.9,296.8,149.9,297.7,144.3,297.7z M144.7,262.1c4,0,7.1-1.5,9.3-4.4
		c2.2-2.9,3.3-7,3.3-12.2c0-5.2-1.1-9.3-3.3-12.4s-5.3-4.6-9.3-4.6c-2.7,0-5,0.7-6.9,2.2s-3.3,3.4-4.2,6c-1,2.6-1.4,5.5-1.4,8.9
		c0,5.1,1.1,9.1,3.2,12.1C137.6,260.6,140.7,262.1,144.7,262.1z"/>
	<path class="st2" d="M213.7,276.3c-6,0-11.2-1.3-15.6-3.8c-4.4-2.5-7.8-6.1-10.2-10.7c-2.4-4.6-3.6-9.9-3.6-15.9
		c0-6.1,1.2-11.4,3.6-16c2.4-4.6,5.8-8.1,10.2-10.7c4.4-2.5,9.6-3.8,15.6-3.8c6,0,11.2,1.3,15.6,3.8c4.4,2.5,7.8,6.1,10.2,10.7
		c2.4,4.6,3.6,9.9,3.6,16c0,6-1.2,11.3-3.6,15.9c-2.4,4.6-5.8,8.1-10.2,10.7C224.9,275.1,219.7,276.3,213.7,276.3z M213.7,263.7
		c2.7,0,5-0.8,6.9-2.3c1.8-1.5,3.2-3.7,4.2-6.4c0.9-2.7,1.4-5.7,1.4-9.2c0-3.4-0.5-6.5-1.4-9.2c-0.9-2.7-2.3-4.8-4.2-6.4
		c-1.8-1.6-4.1-2.3-6.9-2.3c-2.8,0-5.1,0.8-7,2.3c-1.9,1.6-3.3,3.7-4.2,6.4c-0.9,2.7-1.4,5.8-1.4,9.2c0,3.4,0.5,6.5,1.4,9.2
		c0.9,2.7,2.4,4.8,4.2,6.4C208.6,262.9,211,263.7,213.7,263.7z"/>
	<path class="st2" d="M253.8,275.2v-59h16v10.3h0.6c1.1-3.7,2.9-6.4,5.5-8.3c2.6-1.9,5.5-2.8,8.8-2.8c1.6,0,3.1,0.2,4.5,0.6
		s2.6,0.9,3.7,1.6l-5,13.5c-0.8-0.4-1.6-0.7-2.5-1c-0.9-0.3-1.9-0.4-3.1-0.4c-2.2,0-4.2,0.5-6.1,1.6c-1.8,1-3.3,2.5-4.3,4.3
		c-1.1,1.8-1.6,3.9-1.6,6.3v33.4H253.8z"/>
	<path class="st2" d="M308.9,209.2c-2.4,0-4.5-0.8-6.2-2.4c-1.8-1.6-2.7-3.6-2.7-5.9c0-2.3,0.9-4.3,2.7-5.9c1.8-1.6,3.9-2.4,6.2-2.4
		c2.4,0,4.5,0.8,6.2,2.4c1.8,1.6,2.7,3.5,2.7,5.9c0,2.4-0.9,4.3-2.7,5.9C313.4,208.4,311.3,209.2,308.9,209.2z M300.6,275.2v-59
		h16.5v59H300.6z"/>
	<path class="st2" d="M362.1,216.2v12.3h-35.9v-12.3H362.1z M334.3,202.1h16.5v54.8c-0.1,1.5,0.2,2.7,0.6,3.5c0.5,0.8,1.1,1.4,2,1.7
		c0.9,0.3,1.8,0.5,2.9,0.5c0.8,0,1.6-0.1,2.3-0.2c0.8-0.1,1.4-0.2,1.8-0.3l2.6,12.2c-0.8,0.3-2,0.6-3.5,0.9
		c-1.5,0.3-3.3,0.6-5.5,0.6c-4,0.2-7.5-0.4-10.5-1.6c-3-1.2-5.3-3.1-7-5.6c-1.7-2.5-2.5-5.7-2.4-9.6V202.1z"/>
	<path class="st2" d="M390.8,241.1v34.1h-16.5v-78.6h16.1v30.1h0.7c1.3-3.5,3.5-6.2,6.5-8.2c3-2,6.8-3,11.3-3
		c4.1,0,7.8,0.9,10.8,2.7c3.1,1.8,5.5,4.3,7.2,7.6c1.7,3.3,2.6,7.3,2.5,11.9v37.5H413v-34.6c0-3.6-0.9-6.5-2.8-8.5
		c-1.9-2-4.5-3-7.9-3c-3.4,0-6.1,1.1-8.3,3.2C391.9,234.3,390.9,237.3,390.8,241.1z"/>
	<path class="st2" d="M442.5,275.2v-59h15.8v10.4h0.7c1.2-3.5,3.3-6.2,6.2-8.2c2.9-2,6.4-3,10.4-3c4.1,0,7.6,1,10.4,3
		c2.9,2,4.8,4.7,5.7,8.2h0.6c1.2-3.4,3.4-6.1,6.6-8.1c3.2-2,7-3.1,11.4-3.1c5.6,0,10.1,1.7,13.6,5.2c3.5,3.5,5.2,8.4,5.2,14.8v39.7
		h-16.5v-36.4c0-3.3-0.9-5.7-2.6-7.4c-1.8-1.6-4-2.5-6.6-2.5c-3,0-5.3,0.9-7,2.8c-1.7,1.9-2.5,4.4-2.5,7.4v36h-16v-36.8
		c0-2.9-0.8-5.2-2.5-6.9c-1.7-1.7-3.9-2.6-6.6-2.6c-1.8,0-3.5,0.5-4.9,1.4c-1.5,0.9-2.6,2.2-3.5,3.8c-0.9,1.6-1.3,3.5-1.3,5.7v35.4
		H442.5z"/>
	<path class="st2" d="M591.8,233l-15.1,0.9c-0.3-1.3-0.8-2.4-1.7-3.5c-0.9-1-2-1.9-3.4-2.5c-1.4-0.6-3-0.9-4.9-0.9
		c-2.6,0-4.7,0.5-6.5,1.6c-1.8,1.1-2.6,2.5-2.6,4.2c0,1.4,0.6,2.6,1.7,3.6c1.1,1,3.1,1.8,5.9,2.3l10.8,2.2
		c11.4,2.3,17.2,7.6,17.2,16c0,3.9-1.1,7.3-3.4,10.2c-2.3,2.9-5.4,5.2-9.4,6.8c-4,1.6-8.5,2.4-13.7,2.4c-7.9,0-14.2-1.6-18.8-4.9
		c-4.7-3.3-7.4-7.7-8.2-13.3l16.3-0.8c0.5,2.4,1.7,4.2,3.6,5.4c1.9,1.2,4.3,1.9,7.3,1.9c2.9,0,5.2-0.6,7-1.7
		c1.8-1.1,2.7-2.6,2.7-4.3c0-1.5-0.7-2.7-1.9-3.7c-1.2-1-3.2-1.7-5.7-2.2l-10.3-2c-5.8-1.2-10.2-3.1-13-6c-2.8-2.8-4.3-6.5-4.3-10.9
		c0-3.8,1-7.1,3.1-9.8c2.1-2.7,5-4.9,8.8-6.3c3.8-1.5,8.2-2.2,13.3-2.2c7.5,0,13.5,1.6,17.8,4.7C588.6,223.3,591.1,227.6,591.8,233z
		"/>
	<path class="st2" d="M661.6,216.2v12.3h-36.8v-12.3H661.6z M633.2,275.2V212c0-4.3,0.8-7.8,2.5-10.6c1.7-2.8,4-4.9,7-6.3
		c2.9-1.4,6.3-2.1,10.1-2.1c2.5,0,4.9,0.2,7,0.6c2.1,0.4,3.7,0.7,4.7,1l-2.9,12.3c-0.6-0.2-1.4-0.4-2.4-0.6c-1-0.2-1.9-0.3-2.9-0.3
		c-2.4,0-4.1,0.6-5.1,1.7c-0.9,1.1-1.4,2.7-1.4,4.7v62.9H633.2z"/>
	<path class="st2" d="M696.5,276.3c-6,0-11.2-1.3-15.6-3.8c-4.4-2.5-7.8-6.1-10.2-10.7c-2.4-4.6-3.6-9.9-3.6-15.9
		c0-6.1,1.2-11.4,3.6-16c2.4-4.6,5.8-8.1,10.2-10.7c4.4-2.5,9.6-3.8,15.6-3.8c6,0,11.2,1.3,15.6,3.8c4.4,2.5,7.8,6.1,10.2,10.7
		c2.4,4.6,3.6,9.9,3.6,16c0,6-1.2,11.3-3.6,15.9c-2.4,4.6-5.8,8.1-10.2,10.7C707.7,275.1,702.5,276.3,696.5,276.3z M696.6,263.7
		c2.7,0,5-0.8,6.9-2.3c1.8-1.5,3.2-3.7,4.2-6.4c0.9-2.7,1.4-5.7,1.4-9.2c0-3.4-0.5-6.5-1.4-9.2c-0.9-2.7-2.3-4.8-4.2-6.4
		c-1.8-1.6-4.1-2.3-6.9-2.3c-2.8,0-5.1,0.8-7,2.3c-1.9,1.6-3.3,3.7-4.2,6.4c-0.9,2.7-1.4,5.8-1.4,9.2c0,3.4,0.5,6.5,1.4,9.2
		c0.9,2.7,2.4,4.8,4.2,6.4C691.5,262.9,693.8,263.7,696.6,263.7z"/>
	<path class="st2" d="M736.6,275.2v-59h16v10.3h0.6c1.1-3.7,2.9-6.4,5.5-8.3c2.6-1.9,5.5-2.8,8.8-2.8c1.6,0,3.1,0.2,4.5,0.6
		s2.6,0.9,3.7,1.6l-5,13.5c-0.8-0.4-1.6-0.7-2.5-1c-0.9-0.3-1.9-0.4-3.1-0.4c-2.2,0-4.2,0.5-6.1,1.6c-1.8,1-3.3,2.5-4.3,4.3
		c-1.1,1.8-1.6,3.9-1.6,6.3v33.4H736.6z"/>
	<path class="st2" d="M852.3,219.2c-0.3-3.1-1.6-5.5-4-7.2c-2.4-1.7-5.6-2.6-9.6-2.6c-4.1,0-7.3,0.8-9.5,2.5
		c-2.2,1.7-3.3,3.8-3.3,6.3c-0.1,1.4,0.3,2.6,0.9,3.7c0.7,1,1.6,2,2.7,2.7s2.5,1.4,4,2c1.5,0.6,3.2,1,4.9,1.4l7.1,1.7
		c3.5,0.8,6.6,1.8,9.5,3.1c2.9,1.3,5.4,2.9,7.5,4.7c2.1,1.9,3.8,4.1,4.9,6.6c1.2,2.5,1.8,5.4,1.8,8.7c0,4.8-1.3,9-3.7,12.5
		c-2.4,3.5-6,6.2-10.6,8.2c-4.6,1.9-10.1,2.9-16.6,2.9c-6.4,0-12-1-16.7-2.9c-4.7-1.9-8.4-4.8-11.1-8.7c-2.7-3.8-4-8.6-4.2-14.2
		h16.3c0.2,2.6,1,4.8,2.3,6.6c1.4,1.8,3.2,3.1,5.5,4c2.3,0.9,4.9,1.3,7.8,1.3c2.8,0,5.3-0.4,7.4-1.2c2.1-0.8,3.7-2,4.9-3.4
		c1.2-1.4,1.7-3.1,1.7-5c0-1.8-0.5-3.2-1.6-4.5c-1-1.2-2.6-2.2-4.6-3.1c-2-0.8-4.5-1.6-7.4-2.3l-8.7-2.2c-6.7-1.6-12-4.1-15.9-7.6
		c-3.9-3.4-5.8-8-5.8-13.9c0-4.8,1.3-8.9,3.9-12.5s6.2-6.3,10.7-8.3c4.6-2,9.7-3,15.5-3c5.9,0,11.1,1,15.5,3c4.4,2,7.8,4.8,10.3,8.3
		c2.5,3.6,3.7,7.7,3.8,12.4H852.3z"/>
	<path class="st2" d="M907.3,276.3c-6,0-11.2-1.3-15.6-3.8c-4.4-2.5-7.8-6.1-10.2-10.7c-2.4-4.6-3.6-9.9-3.6-15.9
		c0-6.1,1.2-11.4,3.6-16c2.4-4.6,5.8-8.1,10.2-10.7c4.4-2.5,9.6-3.8,15.6-3.8c6,0,11.2,1.3,15.6,3.8c4.4,2.5,7.8,6.1,10.2,10.7
		c2.4,4.6,3.6,9.9,3.6,16c0,6-1.2,11.3-3.6,15.9c-2.4,4.6-5.8,8.1-10.2,10.7C918.6,275.1,913.4,276.3,907.3,276.3z M907.4,263.7
		c2.7,0,5-0.8,6.9-2.3c1.8-1.5,3.2-3.7,4.2-6.4c0.9-2.7,1.4-5.7,1.4-9.2c0-3.4-0.5-6.5-1.4-9.2c-0.9-2.7-2.3-4.8-4.2-6.4
		c-1.8-1.6-4.1-2.3-6.9-2.3c-2.8,0-5.1,0.8-7,2.3c-1.9,1.6-3.3,3.7-4.2,6.4c-0.9,2.7-1.4,5.8-1.4,9.2c0,3.4,0.5,6.5,1.4,9.2
		c0.9,2.7,2.4,4.8,4.2,6.4C902.3,262.9,904.6,263.7,907.4,263.7z"/>
	<path class="st2" d="M974.4,276.3c-6.1,0-11.4-1.3-15.7-3.9c-4.4-2.6-7.8-6.1-10.1-10.7c-2.3-4.6-3.5-9.9-3.5-15.8
		c0-6,1.2-11.3,3.6-15.9c2.4-4.6,5.7-8.1,10.1-10.7c4.4-2.6,9.6-3.9,15.6-3.9c5.2,0,9.8,0.9,13.7,2.8c3.9,1.9,7,4.5,9.3,7.9
		c2.3,3.4,3.5,7.3,3.8,11.9h-15.6c-0.4-2.9-1.6-5.3-3.5-7.1c-1.9-1.8-4.3-2.7-7.4-2.7c-2.6,0-4.8,0.7-6.7,2.1
		c-1.9,1.4-3.4,3.4-4.4,6c-1.1,2.6-1.6,5.8-1.6,9.5c0,5.6,1.2,10,3.5,13.1c2.3,3.1,5.4,4.6,9.3,4.6c2.8,0,5.2-0.8,7.2-2.6
		c1.9-1.7,3.2-4.1,3.6-7.3h15.6c-0.3,4.5-1.5,8.5-3.7,11.9c-2.2,3.4-5.3,6.1-9.2,8S979.7,276.3,974.4,276.3z"/>
	<path class="st2" d="M1020,209.2c-2.4,0-4.5-0.8-6.2-2.4c-1.8-1.6-2.7-3.6-2.7-5.9c0-2.3,0.9-4.3,2.7-5.9c1.8-1.6,3.9-2.4,6.2-2.4
		c2.4,0,4.5,0.8,6.2,2.4c1.8,1.6,2.7,3.5,2.7,5.9c0,2.4-0.9,4.3-2.7,5.9C1024.4,208.4,1022.3,209.2,1020,209.2z M1011.7,275.2v-59
		h16.5v59H1011.7z"/>
	<path class="st2" d="M1068.6,276.3c-6.1,0-11.4-1.2-15.8-3.7c-4.4-2.5-7.8-6-10.2-10.5c-2.4-4.5-3.6-9.9-3.6-16.2
		c0-6.1,1.2-11.4,3.6-16c2.4-4.6,5.7-8.2,10.1-10.7c4.3-2.6,9.4-3.8,15.3-3.8c3.9,0,7.6,0.6,11,1.9c3.4,1.2,6.4,3.1,8.9,5.6
		c2.5,2.5,4.5,5.6,6,9.3c1.4,3.7,2.1,8.1,2.1,13.1v4.5h-50.3v-10.1h34.8c0-3.5-1.2-6.4-3.4-8.7c-2.3-2.3-5.2-3.4-8.8-3.4
		c-2.5,0-4.7,0.6-6.7,1.7c-1.9,1.1-3.4,2.7-4.5,4.6c-1.1,1.9-1.6,4-1.7,6.3v9.6c0,4.4,1.2,7.9,3.6,10.4c2.4,2.5,5.7,3.8,9.9,3.8
		c2.7,0,5.1-0.6,7.2-1.7c2-1.2,3.5-2.9,4.3-5.1l15.3,1c-1.2,5.5-4.1,9.9-8.8,13.1C1082,274.7,1075.9,276.3,1068.6,276.3z"/>
	<path class="st2" d="M1138.4,216.2v12.3h-35.9v-12.3H1138.4z M1110.7,202.1h16.5v54.8c-0.1,1.5,0.2,2.7,0.6,3.5
		c0.5,0.8,1.1,1.4,2,1.7c0.9,0.3,1.8,0.5,2.9,0.5c0.8,0,1.6-0.1,2.3-0.2c0.8-0.1,1.4-0.2,1.8-0.3l2.6,12.2c-0.8,0.3-2,0.6-3.5,0.9
		c-1.5,0.3-3.3,0.6-5.5,0.6c-4,0.2-7.5-0.4-10.5-1.6c-3-1.2-5.3-3.1-7-5.6c-1.7-2.5-2.5-5.7-2.4-9.6V202.1z"/>
	<path class="st2" d="M1159,298.1c-2.3,0-4.3-0.2-6-0.6s-3-0.8-3.9-1.2l3.7-12.7c1.9,0.6,3.7,0.9,5.2,0.9c1.5,0,2.9-0.3,4-1.1
		c1.2-0.8,2.1-2,2.9-3.8l1.2-2.8l-21.5-60.7h17.4l12.3,43.3h0.6l12.5-43.3h17.5l-23.3,65.7c-1.1,3.1-2.7,5.9-4.7,8.4
		c-2,2.4-4.5,4.3-7.5,5.7C1166.6,297.5,1163.1,298.1,1159,298.1z"/>
</g>
</svg>
