<?xml version="1.0" encoding="utf-8"?>
<!-- Generator: Adobe Illustrator 23.0.3, SVG Export Plug-In . SVG Version: 6.00 Build 0)  -->
<svg version="1.1" id="Layer_1" xmlns="http://www.w3.org/2000/svg" xmlns:xlink="http://www.w3.org/1999/xlink" x="0px" y="0px"
	 viewBox="0 0 250.9 243.5" style="enable-background:new 0 0 250.9 243.5;" xml:space="preserve">
<g>
	<path d="M23.9,123.1l17.3-30.4c0,0,0,0,0,0l-17.4,30.5l7.4,4.2l0.1-0.1L23.9,123.1z"/>
	<polygon points="13.1,138 79.8,138 79.6,137.9 13.3,137.9 	"/>
	<polygon points="61.8,127.3 69,123.2 69,123.2 61.8,127.3 	"/>
	<path d="M189.3,127.3l-7.4-4.2l17.4-30.5c0,0-0.1,0-0.1,0l-17.4,30.5L189.3,127.3L171,137.9h0.2L189.3,127.3z"/>
	<path d="M209.6,92.6L209.6,92.6c-1.7,0.4-3.4,0.7-5.2,0.7c0,0,0,0,0,0C206.3,93.3,208,93,209.6,92.6z"/>
	<path d="M242.9,137.9L243,114l-7.4,4.2l-17.4-30.5c3.7-3.6,6-8.7,6-14.2c0-10-7.5-18.3-17.1-19.7l10.7-18.5h-8.5V14.9h-64.8
		c-2.1-8.6-9.8-14.9-19-14.9s-17,6.3-19.2,14.9H41.5v20.4H33l10.7,18.5c-9.6,1.3-17.1,9.6-17.1,19.7c0,5.6,2.3,10.6,6,14.2
		l-17.4,30.5L7.9,114L8,137.9H0v5c0,25.6,20.8,46.5,46.5,46.5S93,168.6,93,142.9v-5h-8l0.1-23.9l-7.3,4.2L60.3,87.7
		c3.7-3.6,6-8.7,6-14.2c0-10-7.5-18.3-17.1-19.7l10.7-18.5h-8.5V24.9h54.8c2,7.7,8.5,13.5,16.4,14.7L112,58.1h8.5v22
		c-8.5,2.2-14.9,10-14.9,19.2c0,10,7.5,18.3,17.1,19.7L112,137.5h8.5v68h-79v38.1h168v-38.1h-79v-68h8.5L128.2,119
		c9.6-1.3,17.1-9.6,17.1-19.7c0-9.2-6.3-17-14.9-19.2v-22h8.5l-10.7-18.5c8-1.1,14.4-7,16.4-14.7h54.8v10.4H191l10.7,18.5
		c-9.6,1.3-17.1,9.6-17.1,19.7c0,5.6,2.3,10.6,6,14.2l-17.4,30.5l-7.4-4.2l0.1,23.9h-8v5c0,25.6,20.8,46.5,46.5,46.5
		s46.5-20.8,46.5-46.5v-5H242.9z M46.5,179.4c-18.4,0-33.7-13.7-36.1-31.5h72.2C80.1,165.7,64.9,179.4,46.5,179.4z M69.1,123.1
		l-0.1,0.1l0,0l-7.2,4.1l18.1,10.6h-0.3l0.2,0.1H13.1l0.2-0.1h-0.1l18-10.5l-7.4-4.2l17.4-30.5c0,0,0,0,0,0l0.1-0.1
		c1.6,0.5,3.3,0.7,5.1,0.7c1.8,0,3.5-0.3,5.2-0.7L69.1,123.1z M56.3,73.4c0,5.4-4.4,9.9-9.9,9.9s-9.9-4.4-9.9-9.9s4.4-9.9,9.9-9.9
		C51.9,63.6,56.3,68,56.3,73.4z M199.5,215.5v18.1h-148v-18.1H199.5z M135.3,99.3c0,5.4-4.4,9.9-9.9,9.9c-5.4,0-9.9-4.4-9.9-9.9
		s4.4-9.9,9.9-9.9S135.3,93.9,135.3,99.3z M125.5,29.7c-5.4,0-9.9-4.4-9.9-9.9s4.4-9.9,9.9-9.9c5.4,0,9.9,4.4,9.9,9.9
		S130.9,29.7,125.5,29.7z M204.5,63.6c5.4,0,9.9,4.4,9.9,9.9s-4.4,9.9-9.9,9.9s-9.9-4.4-9.9-9.9S199,63.6,204.5,63.6z M189.2,127.3
		l-7.4-4.2l17.4-30.5c0,0,0.1,0,0.1,0l0,0c1.7,0.4,3.4,0.7,5.2,0.7c1.8,0,3.5-0.3,5.1-0.7l0,0c0,0,0.1,0,0.1,0l17.4,30.5l-7.4,4.2
		l18.2,10.6h-0.2h-66.5H171L189.2,127.3z M204.5,179.4c-18.4,0-33.7-13.7-36.1-31.5h72.2C238.1,165.7,222.9,179.4,204.5,179.4z"/>
	<path d="M46.4,93.3c-1.8,0-3.5-0.2-5.1-0.7l-0.1,0.1c1.7,0.4,3.4,0.7,5.2,0.7c1.8,0,3.5-0.3,5.2-0.7L69,123.2l0.1-0.1L51.6,92.6
		C49.9,93,48.2,93.3,46.4,93.3z"/>
	<polygon points="79.6,137.9 79.9,137.9 61.8,127.3 61.7,127.4 	"/>
	<polygon points="31.2,127.4 13.2,137.9 13.3,137.9 31.2,127.4 	"/>
	<path d="M204.5,93.3c-1.8,0-3.5-0.3-5.2-0.7l0,0C200.9,93,202.6,93.3,204.5,93.3C204.4,93.3,204.4,93.3,204.5,93.3z"/>
	<path d="M219.6,127.3l18.1,10.6h0.2l-18.2-10.6l7.4-4.2l-17.4-30.5c0,0-0.1,0-0.1,0l17.4,30.5L219.6,127.3z"/>
</g>
</svg>
